<?xml version="1.0" standalone="no"?><!DOCTYPE svg PUBLIC "-//W3C//DTD SVG 1.1//EN" "http://www.w3.org/Graphics/SVG/1.1/DTD/svg11.dtd"><svg t="1714710542470" class="icon" viewBox="0 0 1024 1024" version="1.1" xmlns="http://www.w3.org/2000/svg" p-id="21563" width="128" height="128" xmlns:xlink="http://www.w3.org/1999/xlink"><path d="M937.935449 507.591018c0 236.555144-191.753677 428.301596-428.305209 428.301597-236.553338 0-428.316046-191.746452-428.316046-428.301597 0-236.538888 191.762708-428.301596 428.316046-428.301596 236.551532 0 428.305209 191.762708 428.305209 428.301596" fill="#0f0f89" p-id="21564" data-spm-anchor-id="a313x.search_index.0.i0.20d17615SDJ7Zy" class="selected"></path><path d="M509.63024 85.627446c232.758471 0 422.106264 189.362242 422.106264 422.106264 0 232.742215-189.347792 422.106264-422.106264 422.106263-232.756665 0-422.104457-189.364048-422.104457-422.106263 0-232.744021 189.349599-422.106264 422.104457-422.106264m0-43.665355c-257.234551 0-465.771619 208.522618-465.771619 465.771619 0 257.236357 208.537068 465.773425 465.771619 465.773425 257.236357 0 465.773425-208.537068 465.773425-465.773425 0-257.249001-208.537068-465.771619-465.773425-465.771619" fill="#EEEEEE" p-id="21565"></path><path d="M613.964701 626.292149c-1.249904-6.184495-3.200621-12.067352-5.545094-17.722625l-134.998649-233.741055c24.83913-3.439042 65.520611-13.304613 94.43096-41.7905 44.29392-43.607556 14.559935-101.887034 14.559935-101.887033-12.567675 27.347969-80.75246 41.618909-131.001485 58.219872-20.097804 6.652306-31.014594 19.615543-36.985956 32.77927-6.6794 4.889436-14.121024 15.862219-6.679399 39.99873 8.044901 26.125158 77.652987 122.412912 122.411105 182.697293-18.504718-4.479424-38.689221-5.077283-59.150075-0.937428-66.971005 13.599026-111.525021 72.519711-99.549786 131.590313 11.998716 59.09047 76.011134 95.991533 142.969496 82.387088 66.961974-13.602639 111.535858-72.505262 99.538948-131.593925" fill="#ffffff" p-id="21566" data-spm-anchor-id="a313x.search_index.0.i1.20d17615SDJ7Zy" class=""></path></svg>