<?xml version="1.0" standalone="no"?><!DOCTYPE svg PUBLIC "-//W3C//DTD SVG 1.1//EN" "http://www.w3.org/Graphics/SVG/1.1/DTD/svg11.dtd"><svg height="1024" node-id="1" sillyvg="true" template-height="1024" template-width="1024" version="1.1" viewBox="0 0 1024 1024" width="1024" xmlns="http://www.w3.org/2000/svg" xmlns:xlink="http://www.w3.org/1999/xlink"><defs node-id="43"></defs><path d="M 955.90 888.80 L 320.40 898.40 L 68.10 853.70 L 461.90 853.70 Z" fill="#e6e6e6" fill-rule="nonzero" node-id="45" stroke="none" target-height="44.700012" target-width="887.80005" target-x="68.1" target-y="853.7"></path><path d="M 901.60 227.20 C 901.60 283.37 856.07 328.90 799.90 328.90 C 743.73 328.90 698.20 283.37 698.20 227.20 C 698.20 171.03 743.73 125.50 799.90 125.50 C 856.07 125.50 901.60 171.03 901.60 227.20 Z" fill="#ff6584" fill-rule="nonzero" node-id="47" stroke="none" target-height="203.4" target-width="203.39996" target-x="698.2" target-y="125.5"></path><path d="M 248.00 859.00 C 248.00 859.00 249.50 827.80 280.00 831.50" fill="#3f3d56" fill-rule="nonzero" node-id="49" stroke="none" target-height="31.200012" target-width="32" target-x="248" target-y="827.8"></path><path d="M 254.60 814.10 C 254.60 822.55 247.75 829.40 239.30 829.40 C 230.85 829.40 224.00 822.55 224.00 814.10 C 224.00 805.65 230.85 798.80 239.30 798.80 C 247.75 798.80 254.60 805.65 254.60 814.10 Z" fill="#c5a47a" fill-rule="nonzero" node-id="51" stroke="none" target-height="30.600037" target-width="30.600006" target-x="224" target-y="798.8"></path><path d="M 236.90 839.80 L 241.20 839.80 L 241.20 869.90 L 236.90 869.90 Z" fill="#3f3d56" fill-rule="nonzero" node-id="53" stroke="none" target-height="30.100037" target-width="4.300003" target-x="236.9" target-y="839.8"></path><path d="M 750.40 864.30 C 750.40 864.30 751.90 833.10 782.40 836.80" fill="#3f3d56" fill-rule="nonzero" node-id="55" stroke="none" target-height="31.200012" target-width="32" target-x="750.4" target-y="833.1"></path><path d="M 757.10 819.40 C 757.10 827.85 750.25 834.70 741.80 834.70 C 733.35 834.70 726.50 827.85 726.50 819.40 C 726.50 810.95 733.35 804.10 741.80 804.10 C 750.25 804.10 757.10 810.95 757.10 819.40 Z" fill="#c5a47a" fill-rule="nonzero" node-id="57" stroke="none" target-height="30.600037" target-width="30.599976" target-x="726.5" target-y="804.1"></path><path d="M 739.30 845.10 L 743.60 845.10 L 743.60 875.20 L 739.30 875.20 Z" fill="#3f3d56" fill-rule="nonzero" node-id="59" stroke="none" target-height="30.100037" target-width="4.299988" target-x="739.3" target-y="845.1"></path><path d="M 823.90 869.70 C 823.90 869.70 825.40 838.50 855.90 842.20" fill="#3f3d56" fill-rule="nonzero" node-id="61" stroke="none" target-height="31.200012" target-width="32" target-x="823.9" target-y="838.5"></path><path d="M 830.50 824.80 C 830.50 833.25 823.65 840.10 815.20 840.10 C 806.75 840.10 799.90 833.25 799.90 824.80 C 799.90 816.35 806.75 809.50 815.20 809.50 C 823.65 809.50 830.50 816.35 830.50 824.80 Z" fill="#c5a47a" fill-rule="nonzero" node-id="63" stroke="none" target-height="30.599976" target-width="30.599976" target-x="799.9" target-y="809.5"></path><path d="M 812.80 850.40 L 817.10 850.40 L 817.10 880.50 L 812.80 880.50 Z" fill="#3f3d56" fill-rule="nonzero" node-id="65" stroke="none" target-height="30.099976" target-width="4.299988" target-x="812.8" target-y="850.4"></path><path d="M 368.20 844.10 C 368.20 844.10 369.70 812.90 400.20 816.60" fill="#3f3d56" fill-rule="nonzero" node-id="67" stroke="none" target-height="31.199951" target-width="32" target-x="368.2" target-y="812.9"></path><path d="M 374.90 799.20 C 374.90 807.65 368.05 814.50 359.60 814.50 C 351.15 814.50 344.30 807.65 344.30 799.20 C 344.30 790.75 351.15 783.90 359.60 783.90 C 368.05 783.90 374.90 790.75 374.90 799.20 Z" fill="#c5a47a" fill-rule="nonzero" node-id="69" stroke="none" target-height="30.599976" target-width="30.600006" target-x="344.3" target-y="783.9"></path><path d="M 357.10 824.90 L 361.40 824.90 L 361.40 855.00 L 357.10 855.00 Z" fill="#3f3d56" fill-rule="nonzero" node-id="71" stroke="none" target-height="30.099976" target-width="4.299988" target-x="357.1" target-y="824.9"></path><path d="M 141.50 849.40 C 141.50 849.40 143.00 818.20 173.50 821.90" fill="#3f3d56" fill-rule="nonzero" node-id="73" stroke="none" target-height="31.200012" target-width="32" target-x="141.5" target-y="818.2"></path><path d="M 148.20 804.50 C 148.20 812.95 141.35 819.80 132.90 819.80 C 124.45 819.80 117.60 812.95 117.60 804.50 C 117.60 796.05 124.45 789.20 132.90 789.20 C 141.35 789.20 148.20 796.05 148.20 804.50 Z" fill="#c5a47a" fill-rule="nonzero" node-id="75" stroke="none" target-height="30.599976" target-width="30.599998" target-x="117.6" target-y="789.2"></path><path d="M 130.40 830.20 L 134.70 830.20 L 134.70 860.30 L 130.40 860.30 Z" fill="#3f3d56" fill-rule="nonzero" node-id="77" stroke="none" target-height="30.099976" target-width="4.300003" target-x="130.4" target-y="830.2"></path><path d="M 676.60 629.10 C 676.60 720.89 602.19 795.30 510.40 795.30 C 418.61 795.30 344.20 720.89 344.20 629.10 C 344.20 537.31 418.61 462.90 510.40 462.90 C 602.19 462.90 676.60 537.31 676.60 629.10 Z" fill="#3f3d56" fill-rule="nonzero" node-id="79" stroke="none" target-height="332.4" target-width="332.39996" target-x="344.2" target-y="462.9"></path><path d="M 405.70 642.40 C 421.30 623.80 449.00 621.30 467.70 636.80 C 469.70 638.50 471.60 640.30 473.30 642.40 C 492.80 623.80 493.50 592.80 474.90 573.30 C 456.30 553.80 425.30 553.10 405.80 571.70 C 386.30 590.30 385.60 621.30 404.20 640.80 C 404.70 641.40 405.20 641.90 405.70 642.40 Z" fill="#ffffff" fill-rule="nonzero" node-id="81" stroke="none" target-height="89.30005" target-width="107.899994" target-x="385.6" target-y="553.1"></path><path d="M 537.70 642.40 C 553.30 623.80 581.00 621.30 599.70 636.80 C 601.70 638.50 603.60 640.30 605.30 642.40 C 624.80 623.80 625.50 592.80 606.90 573.30 C 588.30 553.80 557.30 553.10 537.80 571.70 C 518.30 590.30 517.60 621.30 536.20 640.80 C 536.70 641.40 537.20 641.90 537.70 642.40 Z" fill="#ffffff" fill-rule="nonzero" node-id="83" stroke="none" target-height="89.30005" target-width="107.900024" target-x="517.6" target-y="553.1"></path><path d="M 439.60 590.40 C 439.60 599.68 432.08 607.20 422.80 607.20 C 413.52 607.20 406.00 599.68 406.00 590.40 C 406.00 581.12 413.52 573.60 422.80 573.60 C 432.08 573.60 439.60 581.12 439.60 590.40 Z" fill="#3f3d56" fill-rule="nonzero" node-id="85" stroke="none" target-height="33.600037" target-width="33.600006" target-x="406" target-y="573.6"></path><path d="M 571.60 590.40 C 571.60 599.68 564.08 607.20 554.80 607.20 C 545.52 607.20 538.00 599.68 538.00 590.40 C 538.00 581.12 545.52 573.60 554.80 573.60 C 564.08 573.60 571.60 581.12 571.60 590.40 Z" fill="#3f3d56" fill-rule="nonzero" node-id="87" stroke="none" target-height="33.600037" target-width="33.599976" target-x="538" target-y="573.6"></path><path d="M 410.20 670.60 C 410.20 681.42 401.42 690.20 390.60 690.20 C 379.78 690.20 371.00 681.42 371.00 670.60 C 371.00 659.78 379.78 651.00 390.60 651.00 C 401.42 651.00 410.20 659.78 410.20 670.60 Z" fill="#ff6584" fill-rule="nonzero" node-id="89" stroke="none" target-height="39.200012" target-width="39.200012" target-x="371" target-y="651"></path><path d="M 635.10 670.60 C 635.10 681.42 626.32 690.20 615.50 690.20 C 604.68 690.20 595.90 681.42 595.90 670.60 C 595.90 659.78 604.68 651.00 615.50 651.00 C 626.32 651.00 635.10 659.78 635.10 670.60 Z" fill="#ff6584" fill-rule="nonzero" node-id="91" stroke="none" target-height="39.200012" target-width="39.19995" target-x="595.9" target-y="651"></path><path d="M 503.10 631.50 L 488.40 695.10 L 512.80 670.60 Z" fill="#ff6584" fill-rule="nonzero" node-id="93" stroke="none" target-height="63.599976" target-width="24.399994" target-x="488.4" target-y="631.5"></path><path d="M 578.40 876.00 L 561.80 862.00 L 562.20 876.00 L 557.00 876.00 L 556.60 861.20 L 534.10 876.00 L 524.70 876.00 L 556.40 855.10 L 555.20 811.30 L 554.30 778.30 L 559.40 778.10 L 560.30 811.30 L 561.60 855.10 L 586.50 876.00 Z" fill="#3f3d56" fill-rule="nonzero" node-id="95" stroke="none" target-height="97.900024" target-width="61.799988" target-x="524.7" target-y="778.1"></path><path d="M 500.20 876.00 L 483.50 862.00 L 483.90 876.00 L 478.80 876.00 L 478.40 861.20 L 455.90 876.00 L 446.50 876.00 L 478.20 855.10 L 476.90 811.30 L 476.00 778.30 L 481.20 778.10 L 482.10 811.30 L 483.30 855.10 L 508.20 876.00 Z" fill="#3f3d56" fill-rule="nonzero" node-id="97" stroke="none" target-height="97.900024" target-width="61.700012" target-x="446.5" target-y="778.1"></path><path d="M 512.80 450.60 C 508.20 450.60 504.20 454.10 501.50 459.60 C 499.10 451.40 494.10 445.70 488.30 445.70 C 487.90 445.70 487.50 445.80 487.10 445.90 C 484.90 437.20 479.70 431.00 473.60 431.00 C 465.50 431.00 458.90 441.90 458.90 455.40 C 458.90 468.90 465.50 479.80 473.60 479.80 C 474.00 479.80 474.40 479.70 474.80 479.60 C 477.00 488.30 482.20 494.50 488.30 494.50 C 492.90 494.50 496.90 491.00 499.60 485.50 C 502.00 493.70 507.00 499.40 512.80 499.40 C 520.90 499.40 527.50 488.50 527.50 475.00 C 527.50 461.50 520.90 450.60 512.80 450.60 Z" fill="#3f3d56" fill-rule="nonzero" node-id="99" stroke="none" target-height="68.399994" target-width="68.600006" target-x="458.9" target-y="431"></path><path d="M 354.40 692.10 L 354.40 692.10 C 327.40 692.10 305.50 670.20 305.50 643.20 L 305.50 643.20 L 305.50 618.80 C 305.50 591.80 327.40 569.90 354.40 569.90 L 354.40 569.90 L 354.40 569.90 L 354.40 569.90 L 354.40 692.10 L 354.40 692.10 Z" fill="#c5a47a" fill-rule="nonzero" node-id="101" stroke="none" target-height="122.19995" target-width="48.899994" target-x="305.5" target-y="569.9"></path><path d="M 666.40 569.80 L 666.40 569.80 C 693.40 569.80 715.30 591.70 715.30 618.70 L 715.30 643.10 C 715.30 670.10 693.40 692.00 666.40 692.00 L 666.40 692.00 L 666.40 692.00 L 666.40 692.00 L 666.40 569.80 L 666.40 569.80 Z" fill="#c5a47a" fill-rule="nonzero" node-id="103" stroke="none" target-height="122.20001" target-width="48.899963" target-x="666.4" target-y="569.8"></path><path d="M 692.00 622.60 L 684.20 622.60 C 684.20 524.20 604.20 444.20 505.80 444.20 C 407.40 444.20 327.40 524.20 327.40 622.60 L 319.60 622.60 C 319.60 519.90 403.10 436.40 505.80 436.40 C 608.50 436.40 692.00 519.90 692.00 622.60 Z" fill="#c5a47a" fill-rule="nonzero" node-id="105" stroke="none" target-height="186.19998" target-width="372.4" target-x="319.6" target-y="436.4"></path><path d="M 199.80 493.60 L 199.80 493.60 L 199.80 493.60 Z" fill="#3f3d56" fill-rule="nonzero" node-id="107" stroke="none" target-height="0" target-width="0" target-x="199.8" target-y="493.6"></path><path d="M 239.70 473.10 L 239.70 473.10 L 236.10 471.60 L 220.70 465.10 L 215.20 462.80 L 214.80 463.90 L 214.80 463.90 L 207.40 482.60 L 228.20 491.40 L 228.30 491.50 L 226.90 494.80 C 226.70 495.10 226.50 495.40 226.40 495.80 C 225.40 498.30 227.30 500.80 229.00 501.40 C 230.70 502.00 233.00 500.60 234.00 498.20 C 235.00 495.80 234.00 492.60 232.30 491.90 L 232.30 491.90 L 228.70 490.40 L 216.20 485.60 L 223.30 467.60 L 222.20 467.20 L 215.10 485.20 L 213.60 484.60 L 220.80 466.50 L 221.00 466.60 L 235.70 472.80 L 235.80 472.90 L 234.40 476.20 C 234.20 476.50 234.00 476.80 233.90 477.20 C 232.90 479.70 234.80 482.20 236.50 482.80 C 238.20 483.40 240.50 482.00 241.50 479.60 C 242.30 476.90 241.40 473.80 239.70 473.10 Z" fill="#3f3d56" fill-rule="nonzero" node-id="109" stroke="none" target-height="39.200012" target-width="34.90001" target-x="207.4" target-y="462.8"></path><path d="M 311.80 519.00 C 304.20 514.70 305.70 505.20 305.70 505.20 C 305.50 499.00 300.40 499.90 300.40 499.90 L 298.50 500.30 C 297.60 499.90 296.70 499.70 295.70 499.80 L 292.90 500.30 C 299.30 501.80 298.80 507.20 298.80 507.20 L 299.70 513.50 L 282.90 506.70 L 284.80 502.10 C 285.10 501.70 285.30 501.20 285.50 500.80 C 286.90 497.40 284.30 493.90 281.80 493.00 C 279.40 492.00 276.30 494.00 274.90 497.50 C 273.60 500.90 274.90 505.20 277.20 506.30 L 277.20 506.30 L 282.30 508.40 L 282.30 508.30 L 311.80 519.00 Z M 303.20 507.90 L 303.70 513.90 C 301.80 511.20 300.90 508.00 301.20 504.70 C 301.20 503.50 300.80 502.40 300.10 501.50 C 302.30 502.90 303.50 505.40 303.20 507.90 L 303.20 507.90 Z" fill="#3f3d56" fill-rule="nonzero" node-id="111" stroke="none" target-height="27" target-width="38.19998" target-x="273.6" target-y="492"></path><path d="M 183.40 430.00 L 183.40 430.00 L 178.30 427.90 L 157.10 419.70 L 162.40 414.90 C 164.60 412.00 168.60 411.30 171.60 413.40 L 169.90 410.90 C 169.90 410.90 166.80 406.80 162.40 411.10 C 162.40 411.10 157.00 419.10 148.50 417.00 L 177.40 429.20 L 177.60 429.30 L 175.60 433.90 C 175.30 434.30 175.10 434.80 174.90 435.20 C 173.50 438.60 176.10 442.10 178.60 443.00 C 181.10 443.90 184.10 442.00 185.50 438.50 C 187.10 435.40 185.80 431.10 183.40 430.00 Z" fill="#3f3d56" fill-rule="nonzero" node-id="113" stroke="none" target-height="37.100006" target-width="38.600006" target-x="148.5" target-y="406.8"></path><path d="M 260.90 403.10 L 258.90 407.70 C 258.60 408.10 258.40 408.60 258.20 409.00 C 256.80 412.40 259.40 415.90 261.90 416.80 C 264.40 417.70 267.40 415.80 268.80 412.30 C 270.10 408.90 268.80 404.60 266.50 403.50 L 266.50 403.50 L 261.40 401.40 L 244.10 394.70 L 254.00 369.70 L 252.50 369.10 L 242.60 394.10 L 240.50 393.30 L 250.40 368.20 L 250.70 368.30 L 271.00 377.00 L 271.20 377.10 L 269.20 381.70 C 268.90 382.10 268.70 382.60 268.50 383.00 C 267.10 386.40 269.70 389.90 272.20 390.80 C 274.70 391.70 277.70 389.80 279.10 386.30 C 280.40 382.90 279.10 378.60 276.80 377.50 L 276.80 377.50 L 271.70 375.40 L 251.00 366.70 L 251.00 366.70 L 251.00 366.70 L 250.30 366.40 L 242.60 363.20 L 231.70 390.60 L 260.60 402.80 L 260.90 403.10 Z" fill="#3f3d56" fill-rule="nonzero" node-id="115" stroke="none" target-height="54.5" target-width="48.699997" target-x="231.7" target-y="363.2"></path><path d="M 169.20 262.60 L 169.20 262.60 L 160.50 259.00 L 124.00 244.80 L 133.20 236.60 C 133.20 236.60 139.30 228.10 149.10 234.00 L 146.20 229.80 C 146.20 229.80 140.80 222.70 133.30 230.20 C 133.30 230.20 124.00 243.90 109.40 240.40 L 159.20 261.50 L 159.50 261.70 L 156.10 269.60 C 155.60 270.30 155.20 271.10 154.90 271.90 C 152.50 277.80 157.00 283.70 161.20 285.40 C 165.40 287.10 170.70 283.60 173.10 277.70 C 175.50 271.80 173.30 264.40 169.20 262.60 Z" fill="#3f3d56" fill-rule="nonzero" node-id="117" stroke="none" target-height="64.40001" target-width="66.1" target-x="109.4" target-y="222.7"></path><path d="M 195.90 381.50 C 177.80 371.20 181.40 348.50 181.40 348.50 C 180.90 333.80 168.80 335.80 168.80 335.80 L 164.40 336.80 C 162.30 335.80 160.10 335.40 157.80 335.60 L 151.10 336.70 C 166.50 340.30 165.20 353.20 165.20 353.20 L 167.40 368.20 L 127.10 352.00 L 131.70 341.10 C 132.30 340.10 132.90 339.00 133.30 337.90 C 136.60 329.70 130.40 321.40 124.60 319.10 C 118.80 316.80 111.40 321.60 108.10 329.90 C 104.90 338.00 108.00 348.40 113.70 350.90 L 113.70 350.90 L 125.80 355.90 L 125.90 355.60 L 195.90 381.50 Z M 175.50 355.10 L 176.80 369.50 C 169.20 359.40 170.80 347.40 170.80 347.40 C 170.70 344.60 169.80 341.90 168.10 339.70 C 176.80 345.00 175.50 355.10 175.50 355.10 L 175.50 355.10 Z" fill="#3f3d56" fill-rule="nonzero" node-id="119" stroke="none" target-height="64.70001" target-width="90.99999" target-x="104.9" target-y="316.8"></path></svg>