<?xml version="1.0" standalone="no"?><!DOCTYPE svg PUBLIC "-//W3C//DTD SVG 1.1//EN" "http://www.w3.org/Graphics/SVG/1.1/DTD/svg11.dtd"><svg height="253" node-id="1" sillyvg="true" template-height="253" template-width="257" version="1.1" viewBox="0 0 257 253" width="257" xmlns="http://www.w3.org/2000/svg" xmlns:xlink="http://www.w3.org/1999/xlink"><defs node-id="276"></defs><g node-id="850"><g node-id="857"><path d="M 43.95 186.08 C 48.35 221.77 78.83 249.41 115.80 249.41 C 138.29 249.41 142.34 223.13 171.68 223.13 C 173.90 223.33 176.15 223.45 178.42 223.45 C 218.42 223.45 250.84 191.10 250.84 151.21 C 250.84 124.29 214.21 110.01 214.21 88.40 C 214.22 87.89 214.25 87.38 214.25 86.86 C 214.25 46.95 181.82 14.61 141.82 14.61 C 115.34 14.61 92.19 28.80 79.56 49.97 C 78.94 49.95 78.32 49.92 77.70 49.92 C 37.70 49.92 5.28 82.27 5.28 122.17 C 5.28 149.91 33.76 161.18 43.95 186.08 Z" fill="#d5cfff" fill-opacity="0.39" fill-rule="nonzero" group-id="1,8" node-id="280" stroke="none" target-height="234.80501" target-width="245.564" target-x="5.279" target-y="14.607"></path></g></g><g node-id="851"><path d="M 227.57 192.82 C 227.57 203.35 219.03 211.89 208.50 211.89 C 197.97 211.89 189.43 203.35 189.43 192.82 C 189.43 182.29 197.97 173.75 208.50 173.75 C 219.03 173.75 227.57 182.29 227.57 192.82 Z" fill="#f0f0ff" fill-rule="nonzero" group-id="2" node-id="286" stroke="none" target-height="38.14" target-width="38.14" target-x="189.431" target-y="173.748"></path><g node-id="858"><path d="M 243.44 195.26 L 243.44 188.96 L 235.13 187.38 C 234.86 185.73 234.42 184.13 233.86 182.60 L 240.40 177.32 L 237.25 171.87 L 229.27 174.65 C 228.21 173.38 227.04 172.21 225.78 171.16 L 228.79 163.31 L 223.35 160.16 L 217.83 166.56 C 216.30 165.99 214.70 165.56 213.05 165.28 L 211.74 156.97 L 205.45 156.97 L 203.87 165.28 C 202.22 165.56 200.62 165.99 199.09 166.56 L 193.81 160.02 L 188.37 163.17 L 191.14 171.15 C 189.87 172.21 188.70 173.38 187.65 174.65 L 179.80 171.62 L 176.65 177.08 L 183.05 182.60 C 182.48 184.13 182.06 185.72 181.77 187.38 L 173.47 188.68 L 173.47 194.97 L 181.77 196.56 C 182.05 198.21 182.48 199.80 183.05 201.34 L 176.51 206.62 L 179.66 212.07 L 187.64 209.29 C 188.70 210.56 189.87 211.72 191.13 212.78 L 188.11 220.63 L 193.56 223.78 L 199.08 217.38 C 200.61 217.94 202.21 218.37 203.85 218.66 L 205.17 226.96 L 211.46 226.96 L 213.04 218.66 C 214.69 218.38 216.29 217.94 217.82 217.38 L 223.10 223.92 L 228.54 220.77 L 225.77 212.79 C 227.04 211.73 228.21 210.56 229.26 209.30 L 237.11 212.32 L 240.26 206.87 L 233.86 201.34 C 234.42 199.81 234.85 198.22 235.13 196.57 L 243.44 195.26 Z M 208.39 210.47 C 198.23 210.47 189.98 202.23 189.98 192.06 C 189.98 181.89 198.23 173.65 208.39 173.65 C 218.56 173.65 226.80 181.89 226.80 192.06 C 226.80 202.23 218.56 210.47 208.39 210.47 Z" fill="#ffffff" fill-rule="nonzero" group-id="2,9" node-id="290" stroke="none" target-height="69.98801" target-width="69.97499" target-x="173.466" target-y="156.974"></path><path d="M 212.70 228.46 L 203.89 228.46 L 202.54 219.93 C 201.52 219.72 200.53 219.45 199.55 219.13 L 193.89 225.69 L 186.25 221.29 L 189.35 213.22 C 188.59 212.53 187.86 211.80 187.17 211.04 L 178.98 213.89 L 174.57 206.25 L 181.28 200.83 C 180.96 199.85 180.70 198.85 180.49 197.84 L 171.97 196.21 L 171.97 187.40 L 180.50 186.06 C 180.71 185.04 180.98 184.04 181.30 183.06 L 174.73 177.40 L 179.14 169.76 L 187.20 172.87 C 187.89 172.10 188.62 171.37 189.39 170.68 L 186.54 162.49 L 194.17 158.08 L 199.59 164.79 C 200.57 164.47 201.57 164.21 202.59 163.99 L 204.21 155.47 L 213.03 155.47 L 214.37 164.00 C 215.38 164.22 216.38 164.48 217.36 164.80 L 223.03 158.24 L 230.66 162.65 L 227.55 170.71 C 228.32 171.40 229.05 172.13 229.74 172.90 L 237.93 170.04 L 242.34 177.68 L 235.62 183.10 C 235.94 184.10 236.21 185.10 236.42 186.10 L 244.94 187.72 L 244.94 196.54 L 236.41 197.88 C 236.20 198.89 235.93 199.89 235.61 200.87 L 242.18 206.54 L 237.77 214.18 L 229.71 211.07 C 229.01 211.84 228.28 212.57 227.52 213.25 L 230.37 221.45 L 222.74 225.86 L 217.31 219.14 C 216.33 219.46 215.33 219.73 214.32 219.94 L 212.70 228.46 Z M 206.45 225.46 L 210.22 225.46 L 211.76 217.35 L 212.79 217.18 C 214.31 216.92 215.82 216.52 217.30 215.97 L 218.31 215.60 L 223.46 221.98 L 226.72 220.09 L 224.01 212.30 L 224.81 211.63 C 226.00 210.65 227.11 209.54 228.11 208.33 L 228.80 207.51 L 236.45 210.46 L 238.34 207.19 L 232.10 201.80 L 232.46 200.82 C 232.99 199.36 233.40 197.84 233.66 196.31 L 233.84 195.25 L 241.94 193.97 L 241.94 190.20 L 233.83 188.66 L 233.66 187.62 C 233.40 186.12 233.00 184.60 232.45 183.12 L 232.08 182.11 L 238.46 176.96 L 236.57 173.69 L 228.78 176.41 L 228.12 175.61 C 227.12 174.41 226.01 173.30 224.82 172.30 L 223.99 171.62 L 226.94 163.96 L 223.67 162.08 L 218.28 168.32 L 217.31 167.96 C 215.87 167.43 214.35 167.02 212.79 166.75 L 211.74 166.57 L 210.46 158.47 L 206.69 158.47 L 205.15 166.57 L 204.12 166.75 C 202.59 167.01 201.07 167.42 199.60 167.96 L 198.60 168.33 L 193.45 161.96 L 190.19 163.84 L 192.90 171.64 L 192.10 172.30 C 190.90 173.30 189.79 174.41 188.80 175.60 L 188.11 176.43 L 180.46 173.48 L 178.57 176.75 L 184.81 182.14 L 184.45 183.11 C 183.92 184.57 183.51 186.08 183.25 187.62 L 183.07 188.69 L 174.97 189.96 L 174.97 193.73 L 183.08 195.28 L 183.25 196.31 C 183.51 197.83 183.91 199.35 184.45 200.81 L 184.82 201.82 L 178.45 206.97 L 180.34 210.24 L 188.12 207.53 L 188.79 208.32 C 189.79 209.52 190.90 210.63 192.09 211.63 L 192.91 212.32 L 189.97 219.97 L 193.24 221.85 L 198.63 215.61 L 199.60 215.97 C 201.04 216.50 202.56 216.91 204.11 217.18 L 205.17 217.36 L 206.45 225.46 Z M 208.39 211.97 C 197.41 211.97 188.48 203.04 188.48 192.06 C 188.48 181.08 197.41 172.15 208.39 172.15 C 219.37 172.15 228.30 181.08 228.30 192.06 C 228.30 203.04 219.37 211.97 208.39 211.97 Z M 208.39 175.15 C 199.07 175.15 191.48 182.73 191.48 192.06 C 191.48 201.38 199.07 208.97 208.39 208.97 C 217.71 208.97 225.30 201.38 225.30 192.06 C 225.30 182.73 217.71 175.15 208.39 175.15 Z" fill="#ccccde" fill-rule="nonzero" group-id="2,9" node-id="292" stroke="none" target-height="72.989" target-width="72.974" target-x="171.966" target-y="155.472"></path></g><g node-id="859"><path d="M 216.75 191.97 C 216.75 196.55 213.03 200.27 208.45 200.27 C 203.87 200.27 200.15 196.55 200.15 191.97 C 200.15 187.39 203.87 183.67 208.45 183.67 C 213.03 183.67 216.75 187.39 216.75 191.97 Z" fill="#dbdbed" fill-rule="nonzero" group-id="2,10" node-id="297" stroke="none" target-height="16.596008" target-width="16.596008" target-x="200.152" target-y="183.67"></path><path d="M 208.45 201.77 C 203.05 201.77 198.65 197.37 198.65 191.97 C 198.65 186.57 203.05 182.17 208.45 182.17 C 213.85 182.17 218.25 186.57 218.25 191.97 C 218.25 197.37 213.85 201.77 208.45 201.77 Z M 208.45 185.17 C 204.70 185.17 201.65 188.22 201.65 191.97 C 201.65 195.72 204.70 198.77 208.45 198.77 C 212.20 198.77 215.25 195.72 215.25 191.97 C 215.25 188.22 212.20 185.17 208.45 185.17 Z" fill="#ccccde" fill-rule="nonzero" group-id="2,10" node-id="299" stroke="none" target-height="19.596008" target-width="19.596008" target-x="198.652" target-y="182.17"></path></g></g><g node-id="852"><path d="M 94.98 18.08 C 94.98 17.99 94.99 17.90 94.99 17.80 C 94.99 8.12 86.44 0.27 75.90 0.27 C 66.83 0.27 59.24 6.09 57.30 13.89 C 57.00 13.87 56.70 13.85 56.40 13.85 C 50.13 13.85 45.05 18.52 45.05 24.28 C 45.05 25.52 45.28 26.70 45.71 27.80 C 43.95 30.09 42.91 32.88 42.91 35.89 C 42.91 43.52 49.56 49.73 57.83 49.90 L 57.83 49.91 L 87.15 49.91 C 97.20 49.91 105.35 42.42 105.35 33.18 C 105.35 26.52 101.11 20.77 94.98 18.08 Z" fill="#ffffff" fill-rule="nonzero" group-id="3" node-id="305" stroke="none" target-height="49.638" target-width="62.435997" target-x="42.915" target-y="0.267"></path><path d="M 87.15 51.41 L 57.83 51.41 C 57.77 51.41 57.70 51.40 57.64 51.39 C 48.68 51.14 41.41 44.21 41.41 35.89 C 41.41 32.91 42.32 30.04 44.04 27.55 C 43.71 26.49 43.55 25.39 43.55 24.28 C 43.55 17.77 49.19 12.46 56.18 12.35 C 58.76 4.29 66.69 -1.23 75.90 -1.23 C 87.00 -1.23 96.08 6.94 96.47 17.12 C 102.81 20.28 106.85 26.48 106.85 33.18 C 106.85 43.23 98.02 51.41 87.15 51.41 Z M 57.98 48.41 L 87.15 48.41 C 96.36 48.41 103.85 41.57 103.85 33.18 C 103.85 27.36 100.13 21.98 94.38 19.45 C 93.83 19.21 93.48 18.67 93.48 18.08 L 93.48 17.88 C 93.48 8.96 85.60 1.77 75.90 1.77 C 67.76 1.77 60.55 7.01 58.76 14.25 C 58.58 14.95 57.93 15.43 57.21 15.38 C 56.93 15.37 56.66 15.35 56.40 15.35 C 50.97 15.35 46.55 19.36 46.55 24.28 C 46.55 25.30 46.73 26.30 47.11 27.25 C 47.30 27.74 47.22 28.30 46.90 28.71 C 45.27 30.82 44.41 33.30 44.41 35.89 C 44.41 42.64 50.45 48.25 57.86 48.40 C 57.90 48.40 57.94 48.40 57.98 48.41 Z" fill="#ccccde" fill-rule="nonzero" group-id="3" node-id="307" stroke="none" target-height="52.638" target-width="65.436" target-x="41.415" target-y="-1.233"></path></g><g node-id="853"><g node-id="860"><path d="M 234.07 32.78 C 234.80 30.56 237.06 27.84 239.12 26.72 L 239.13 26.72 C 241.18 25.61 241.18 23.79 239.13 22.68 L 239.12 22.67 C 237.06 21.56 234.68 19.05 233.82 17.10 C 232.95 15.15 231.54 15.15 230.68 17.10 C 229.81 19.05 227.43 21.56 225.37 22.67 L 225.36 22.68 C 223.30 23.79 223.30 25.61 225.36 26.72 L 225.37 26.72 C 227.43 27.84 229.69 30.56 230.42 32.78 L 230.93 34.35 C 231.66 36.57 232.83 36.57 233.56 34.35 L 234.07 32.78 Z" fill="#7fe5ff" fill-rule="nonzero" group-id="4,11" node-id="313" stroke="none" target-height="21.414001" target-width="17.876999" target-x="223.303" target-y="15.154"></path></g><g node-id="861"><path d="M 30.52 15.93 C 31.03 14.36 32.63 12.43 34.09 11.65 L 34.09 11.64 C 35.54 10.86 35.54 9.57 34.09 8.79 L 34.09 8.79 C 32.64 8.00 30.95 6.23 30.34 4.85 C 29.73 3.48 28.73 3.48 28.12 4.85 C 27.52 6.23 25.83 8.00 24.38 8.79 L 24.37 8.79 C 22.93 9.57 22.93 10.86 24.37 11.64 L 24.38 11.65 C 25.83 12.43 27.43 14.36 27.95 15.93 L 28.31 17.03 C 28.82 18.60 29.65 18.60 30.16 17.03 L 30.52 15.93 Z" fill="#ffb0b8" fill-rule="nonzero" group-id="4,12" node-id="318" stroke="none" target-height="15.128" target-width="12.616001" target-x="22.925" target-y="3.475"></path></g><path d="M 12.45 83.52 C 13.06 81.63 14.99 79.31 16.74 78.37 L 16.75 78.36 C 18.49 77.42 18.49 75.87 16.75 74.92 L 16.74 74.92 C 14.99 73.98 12.96 71.84 12.23 70.19 C 11.50 68.53 10.30 68.53 9.56 70.19 C 8.83 71.84 6.80 73.98 5.05 74.92 L 5.05 74.92 C 3.30 75.87 3.30 77.42 5.05 78.36 L 5.05 78.37 C 6.80 79.31 8.73 81.64 9.35 83.52 L 9.78 84.85 C 10.39 86.74 11.40 86.74 12.02 84.85 L 12.45 83.52 Z" fill="#9adfc0" fill-rule="nonzero" group-id="4,13" node-id="323" stroke="none" target-height="18.218002" target-width="15.193" target-x="3.3" target-y="68.526"></path></g><g node-id="854"><path d="M 95.00 136.09 C 95.00 160.97 74.83 181.15 49.94 181.15 C 25.06 181.15 4.88 160.97 4.88 136.09 C 4.88 111.20 25.06 91.03 49.94 91.03 C 74.83 91.03 95.00 111.20 95.00 136.09 Z" fill="#e0ecff" fill-rule="nonzero" group-id="5" node-id="328" stroke="none" target-height="90.118004" target-width="90.118" target-x="4.882" target-y="91.027"></path><path d="M 87.63 136.03 C 87.63 156.82 70.78 173.67 49.99 173.67 C 29.20 173.67 12.35 156.82 12.35 136.03 C 12.35 115.25 29.20 98.40 49.99 98.40 C 70.78 98.40 87.63 115.25 87.63 136.03 Z" fill="#f2faff" fill-rule="nonzero" group-id="5" node-id="330" stroke="none" target-height="75.273994" target-width="75.274" target-x="12.352" target-y="98.398"></path><path d="M 36.13 113.41 C 35.61 113.41 35.11 113.14 34.83 112.66 L 32.13 107.98 C 31.72 107.27 31.97 106.35 32.68 105.93 C 33.40 105.52 34.32 105.77 34.73 106.48 L 37.43 111.16 C 37.84 111.87 37.60 112.79 36.88 113.21 C 36.65 113.34 36.39 113.41 36.13 113.41 Z" fill="#ccccde" fill-rule="nonzero" group-id="5" node-id="332" stroke="none" target-height="7.8880005" target-width="6.1240025" target-x="31.72" target-y="105.519"></path><path d="M 25.95 123.58 C 25.70 123.58 25.44 123.52 25.20 123.38 L 20.53 120.69 C 19.81 120.27 19.57 119.36 19.98 118.64 C 20.39 117.92 21.31 117.68 22.03 118.09 L 26.70 120.78 C 27.42 121.20 27.66 122.12 27.25 122.83 C 26.97 123.31 26.47 123.58 25.95 123.58 Z" fill="#ccccde" fill-rule="nonzero" group-id="5" node-id="334" stroke="none" target-height="5.9069977" target-width="8.096001" target-x="19.567" target-y="117.676"></path><path d="M 21.28 154.09 C 20.76 154.09 20.26 153.82 19.98 153.34 C 19.57 152.62 19.81 151.71 20.53 151.29 L 25.20 148.60 C 25.92 148.18 26.84 148.43 27.25 149.15 C 27.66 149.86 27.42 150.78 26.70 151.19 L 22.03 153.89 C 21.79 154.03 21.54 154.09 21.28 154.09 Z" fill="#ccccde" fill-rule="nonzero" group-id="5" node-id="336" stroke="none" target-height="5.9099884" target-width="8.098" target-x="19.566" target-y="148.182"></path><path d="M 33.43 166.25 C 33.18 166.25 32.92 166.18 32.69 166.04 C 31.97 165.63 31.72 164.71 32.13 164.00 L 34.83 159.32 C 35.25 158.60 36.16 158.36 36.88 158.77 C 37.60 159.19 37.84 160.10 37.43 160.82 L 34.73 165.50 C 34.46 165.98 33.95 166.25 33.43 166.25 Z" fill="#ccccde" fill-rule="nonzero" group-id="5" node-id="338" stroke="none" target-height="7.8880005" target-width="6.1240005" target-x="31.721" target-y="158.358"></path><path d="M 66.64 166.24 C 66.12 166.24 65.62 165.97 65.34 165.49 L 62.64 160.82 C 62.23 160.10 62.47 159.19 63.19 158.77 C 63.91 158.36 64.83 158.60 65.24 159.32 L 67.94 163.99 C 68.35 164.71 68.11 165.63 67.39 166.04 C 67.15 166.18 66.90 166.24 66.64 166.24 Z" fill="#ccccde" fill-rule="nonzero" group-id="5" node-id="340" stroke="none" target-height="7.8860016" target-width="6.1259956" target-x="62.228" target-y="158.358"></path><path d="M 78.79 154.09 C 78.54 154.09 78.28 154.03 78.04 153.89 L 73.37 151.19 C 72.66 150.78 72.41 149.86 72.82 149.15 C 73.24 148.43 74.16 148.18 74.87 148.60 L 79.54 151.29 C 80.26 151.71 80.51 152.62 80.09 153.34 C 79.81 153.82 79.31 154.09 78.79 154.09 Z" fill="#ccccde" fill-rule="nonzero" group-id="5" node-id="342" stroke="none" target-height="5.9079895" target-width="8.095993" target-x="72.41" target-y="148.182"></path><path d="M 74.12 123.58 C 73.61 123.58 73.10 123.31 72.83 122.83 C 72.41 122.12 72.66 121.20 73.37 120.78 L 78.04 118.09 C 78.76 117.67 79.68 117.92 80.09 118.64 C 80.51 119.35 80.26 120.27 79.54 120.69 L 74.87 123.38 C 74.64 123.52 74.38 123.58 74.12 123.58 Z" fill="#ccccde" fill-rule="nonzero" group-id="5" node-id="344" stroke="none" target-height="5.911003" target-width="8.098" target-x="72.41" target-y="117.672"></path><path d="M 63.94 113.41 C 63.69 113.41 63.43 113.34 63.19 113.20 C 62.47 112.79 62.23 111.87 62.64 111.15 L 65.34 106.48 C 65.75 105.77 66.67 105.52 67.39 105.93 C 68.11 106.35 68.35 107.27 67.94 107.98 L 65.24 112.66 C 64.96 113.14 64.46 113.41 63.94 113.41 Z" fill="#ccccde" fill-rule="nonzero" group-id="5" node-id="346" stroke="none" target-height="7.8860016" target-width="6.1259956" target-x="62.227" target-y="105.519"></path><g node-id="863"><path d="M 50.04 105.90 C 49.21 105.90 48.54 105.23 48.54 104.40 L 48.54 102.78 C 48.54 101.95 49.21 101.28 50.04 101.28 C 50.87 101.28 51.54 101.95 51.54 102.78 L 51.54 104.40 C 51.54 105.23 50.87 105.90 50.04 105.90 Z" fill="#ccccde" fill-opacity="0.39" fill-rule="nonzero" group-id="5,14" node-id="350" stroke="none" target-height="4.6190033" target-width="3" target-x="48.536" target-y="101.282"></path><path d="M 44.55 106.38 C 43.83 106.38 43.20 105.87 43.07 105.14 L 42.79 103.55 C 42.65 102.73 43.20 101.95 44.01 101.81 C 44.82 101.67 45.60 102.21 45.75 103.03 L 46.03 104.62 C 46.17 105.44 45.63 106.22 44.81 106.36 C 44.72 106.37 44.63 106.38 44.55 106.38 Z" fill="#ccccde" fill-opacity="0.39" fill-rule="nonzero" group-id="5,14" node-id="352" stroke="none" target-height="4.715996" target-width="3.521" target-x="42.65" target-y="101.665"></path><path d="M 39.23 107.80 C 38.62 107.80 38.04 107.42 37.82 106.82 L 37.27 105.30 C 36.99 104.52 37.39 103.66 38.17 103.38 C 38.94 103.09 39.80 103.49 40.09 104.27 L 40.64 105.79 C 40.92 106.57 40.52 107.43 39.74 107.71 C 39.57 107.78 39.40 107.80 39.23 107.80 Z" fill="#ccccde" fill-opacity="0.39" fill-rule="nonzero" group-id="5,14" node-id="354" stroke="none" target-height="4.711998" target-width="3.9370003" target-x="36.986" target-y="103.092"></path><path d="M 34.24 110.13 C 33.73 110.13 33.22 109.86 32.95 109.38 L 32.14 107.98 C 31.72 107.27 31.97 106.35 32.68 105.93 C 33.40 105.52 34.32 105.77 34.73 106.48 L 35.54 107.88 C 35.96 108.60 35.71 109.52 34.99 109.93 C 34.76 110.07 34.50 110.13 34.24 110.13 Z" fill="#ccccde" fill-opacity="0.39" fill-rule="nonzero" group-id="5,14" node-id="356" stroke="none" target-height="4.612007" target-width="4.236" target-x="31.721" target-y="105.52"></path><path d="M 29.73 113.29 C 29.30 113.29 28.88 113.11 28.58 112.75 L 27.54 111.52 C 27.01 110.88 27.09 109.94 27.73 109.40 C 28.37 108.87 29.31 108.95 29.84 109.59 L 30.88 110.83 C 31.41 111.46 31.33 112.41 30.70 112.94 C 30.41 113.18 30.07 113.29 29.73 113.29 Z" fill="#ccccde" fill-opacity="0.39" fill-rule="nonzero" group-id="5,14" node-id="358" stroke="none" target-height="4.419998" target-width="4.4020004" target-x="27.012" target-y="108.871"></path><path d="M 25.84 117.18 C 25.50 117.18 25.15 117.07 24.87 116.83 L 23.64 115.79 C 23.00 115.26 22.92 114.31 23.45 113.68 C 23.98 113.05 24.93 112.96 25.57 113.50 L 26.80 114.54 C 27.44 115.07 27.52 116.02 26.98 116.65 C 26.69 117.00 26.26 117.18 25.84 117.18 Z" fill="#ccccde" fill-opacity="0.39" fill-rule="nonzero" group-id="5,14" node-id="360" stroke="none" target-height="4.222" target-width="4.598999" target-x="22.919" target-y="112.962"></path><path d="M 22.68 121.69 C 22.42 121.69 22.16 121.63 21.93 121.49 L 20.53 120.68 C 19.81 120.27 19.57 119.35 19.98 118.63 C 20.40 117.92 21.32 117.67 22.03 118.09 L 23.43 118.90 C 24.15 119.31 24.39 120.23 23.98 120.95 C 23.70 121.43 23.19 121.69 22.68 121.69 Z" fill="#ccccde" fill-opacity="0.39" fill-rule="nonzero" group-id="5,14" node-id="362" stroke="none" target-height="4.0250015" target-width="4.8239994" target-x="19.568" target-y="117.67"></path><path d="M 20.35 126.69 C 20.18 126.69 20.01 126.66 19.84 126.59 L 18.32 126.04 C 17.54 125.76 17.14 124.89 17.43 124.12 C 17.71 123.34 18.57 122.93 19.35 123.22 L 20.87 123.78 C 21.65 124.06 22.05 124.92 21.76 125.70 C 21.54 126.31 20.97 126.69 20.35 126.69 Z" fill="#ccccde" fill-opacity="0.39" fill-rule="nonzero" group-id="5,14" node-id="364" stroke="none" target-height="3.7529984" target-width="4.9050007" target-x="17.142" target-y="122.934"></path><path d="M 18.93 132.00 C 18.84 132.00 18.75 132.00 18.67 131.98 L 17.07 131.70 C 16.26 131.56 15.71 130.78 15.86 129.96 C 16.00 129.15 16.79 128.60 17.60 128.75 L 19.19 129.03 C 20.00 129.17 20.55 129.95 20.41 130.76 C 20.28 131.49 19.64 132.00 18.93 132.00 Z" fill="#ccccde" fill-opacity="0.39" fill-rule="nonzero" group-id="5,14" node-id="366" stroke="none" target-height="3.399994" target-width="4.8339996" target-x="15.715" target-y="128.604"></path><path d="M 18.45 137.49 C 18.45 137.49 18.45 137.49 18.45 137.49 L 16.83 137.49 C 16.00 137.49 15.33 136.81 15.33 135.99 C 15.33 135.16 16.00 134.49 16.83 134.49 C 16.83 134.49 16.83 134.49 16.83 134.49 L 18.45 134.49 C 19.28 134.49 19.95 135.16 19.95 135.99 C 19.95 136.82 19.27 137.49 18.45 137.49 Z" fill="#ccccde" fill-opacity="0.39" fill-rule="nonzero" group-id="5,14" node-id="368" stroke="none" target-height="3.001999" target-width="4.6169996" target-x="15.331" target-y="134.488"></path><path d="M 17.33 143.26 C 16.62 143.26 15.99 142.74 15.86 142.02 C 15.71 141.20 16.26 140.42 17.07 140.28 L 18.67 140.00 C 19.48 139.85 20.26 140.40 20.41 141.22 C 20.55 142.03 20.00 142.81 19.19 142.95 L 17.60 143.23 C 17.51 143.25 17.42 143.26 17.33 143.26 Z" fill="#ccccde" fill-opacity="0.39" fill-rule="nonzero" group-id="5,14" node-id="370" stroke="none" target-height="3.401001" target-width="4.8339996" target-x="15.715" target-y="139.855"></path><path d="M 18.84 148.85 C 18.22 148.85 17.65 148.47 17.43 147.86 C 17.14 147.08 17.54 146.22 18.32 145.94 L 19.84 145.38 C 20.62 145.10 21.48 145.50 21.76 146.28 C 22.05 147.06 21.64 147.92 20.87 148.20 L 19.35 148.75 C 19.18 148.82 19.00 148.85 18.84 148.85 Z" fill="#ccccde" fill-opacity="0.39" fill-rule="nonzero" group-id="5,14" node-id="372" stroke="none" target-height="3.744995" target-width="4.9039993" target-x="17.142" target-y="145.101"></path><path d="M 21.28 154.09 C 20.76 154.09 20.26 153.82 19.98 153.34 C 19.57 152.63 19.81 151.71 20.53 151.29 L 21.93 150.48 C 22.65 150.07 23.56 150.31 23.98 151.03 C 24.39 151.75 24.15 152.66 23.43 153.08 L 22.03 153.89 C 21.79 154.03 21.54 154.09 21.28 154.09 Z" fill="#ccccde" fill-opacity="0.39" fill-rule="nonzero" group-id="5,14" node-id="374" stroke="none" target-height="4.026001" target-width="4.8269997" target-x="19.566" target-y="150.066"></path><path d="M 24.60 158.83 C 24.17 158.83 23.75 158.65 23.45 158.30 C 22.92 157.66 23.00 156.72 23.64 156.18 L 24.88 155.14 C 25.51 154.61 26.45 154.69 26.99 155.33 C 27.52 155.96 27.44 156.91 26.80 157.44 L 25.57 158.48 C 25.28 158.72 24.94 158.83 24.60 158.83 Z" fill="#ccccde" fill-opacity="0.39" fill-rule="nonzero" group-id="5,14" node-id="376" stroke="none" target-height="4.223007" target-width="4.6019993" target-x="22.919" target-y="154.609"></path><path d="M 28.69 162.93 C 28.35 162.93 28.01 162.81 27.73 162.58 C 27.10 162.05 27.01 161.10 27.54 160.47 L 28.58 159.22 C 29.11 158.59 30.06 158.50 30.70 159.03 C 31.33 159.57 31.41 160.51 30.88 161.15 L 29.84 162.39 C 29.55 162.75 29.12 162.93 28.69 162.93 Z" fill="#ccccde" fill-opacity="0.39" fill-rule="nonzero" group-id="5,14" node-id="378" stroke="none" target-height="4.425995" target-width="4.404001" target-x="27.011" target-y="158.502"></path><path d="M 33.43 166.25 C 33.18 166.25 32.92 166.18 32.68 166.04 C 31.97 165.63 31.72 164.71 32.14 164.00 L 32.95 162.60 C 33.36 161.88 34.28 161.63 34.99 162.05 C 35.71 162.46 35.96 163.38 35.54 164.10 L 34.73 165.50 C 34.45 165.98 33.95 166.25 33.43 166.25 Z" fill="#ccccde" fill-opacity="0.39" fill-rule="nonzero" group-id="5,14" node-id="380" stroke="none" target-height="4.6150055" target-width="4.236" target-x="31.721" target-y="161.631"></path><path d="M 38.68 168.69 C 38.51 168.69 38.34 168.66 38.16 168.60 C 37.39 168.32 36.99 167.46 37.27 166.68 L 37.82 165.16 C 38.11 164.38 38.97 163.98 39.75 164.26 C 40.52 164.54 40.92 165.41 40.64 166.18 L 40.09 167.70 C 39.87 168.31 39.29 168.69 38.68 168.69 Z" fill="#ccccde" fill-opacity="0.39" fill-rule="nonzero" group-id="5,14" node-id="382" stroke="none" target-height="4.7109985" target-width="3.9389992" target-x="36.986" target-y="163.98"></path><path d="M 44.27 170.19 C 44.19 170.19 44.10 170.18 44.01 170.17 C 43.20 170.03 42.65 169.25 42.79 168.43 L 43.07 166.84 C 43.22 166.02 44.00 165.48 44.81 165.62 C 45.63 165.76 46.17 166.54 46.03 167.36 L 45.75 168.95 C 45.62 169.68 44.99 170.19 44.27 170.19 Z" fill="#ccccde" fill-opacity="0.39" fill-rule="nonzero" group-id="5,14" node-id="384" stroke="none" target-height="4.7149963" target-width="3.521" target-x="42.651" target-y="165.476"></path><path d="M 50.04 170.69 C 49.21 170.69 48.54 170.02 48.54 169.19 L 48.54 167.58 C 48.54 166.75 49.21 166.08 50.04 166.08 C 50.87 166.08 51.54 166.75 51.54 167.58 L 51.54 169.19 C 51.54 170.02 50.87 170.69 50.04 170.69 Z" fill="#ccccde" fill-opacity="0.39" fill-rule="nonzero" group-id="5,14" node-id="386" stroke="none" target-height="4.6190033" target-width="3" target-x="48.537" target-y="166.076"></path><path d="M 55.80 170.19 C 55.09 170.19 54.45 169.68 54.33 168.95 L 54.05 167.36 C 53.90 166.54 54.45 165.76 55.26 165.62 C 56.08 165.47 56.86 166.02 57.00 166.84 L 57.28 168.43 C 57.42 169.25 56.88 170.03 56.06 170.17 C 55.98 170.19 55.89 170.19 55.80 170.19 Z" fill="#ccccde" fill-opacity="0.39" fill-rule="nonzero" group-id="5,14" node-id="388" stroke="none" target-height="4.7169952" target-width="3.521" target-x="53.902" target-y="165.474"></path><path d="M 61.40 168.69 C 60.78 168.69 60.21 168.31 59.98 167.70 L 59.43 166.18 C 59.15 165.41 59.55 164.54 60.33 164.26 C 61.11 163.98 61.97 164.38 62.25 165.16 L 62.80 166.68 C 63.09 167.46 62.69 168.32 61.91 168.60 C 61.74 168.66 61.56 168.69 61.40 168.69 Z" fill="#ccccde" fill-opacity="0.39" fill-rule="nonzero" group-id="5,14" node-id="390" stroke="none" target-height="4.7129974" target-width="3.9380035" target-x="59.149" target-y="163.978"></path><path d="M 66.64 166.25 C 66.12 166.25 65.62 165.98 65.34 165.49 L 64.53 164.09 C 64.12 163.37 64.37 162.46 65.08 162.04 C 65.80 161.63 66.72 161.88 67.13 162.60 L 67.94 164.00 C 68.35 164.72 68.11 165.63 67.39 166.05 C 67.15 166.18 66.90 166.25 66.64 166.25 Z" fill="#ccccde" fill-opacity="0.39" fill-rule="nonzero" group-id="5,14" node-id="392" stroke="none" target-height="4.6159973" target-width="4.2339935" target-x="64.12" target-y="161.63"></path><path d="M 71.38 162.93 C 70.96 162.93 70.53 162.75 70.23 162.39 L 69.19 161.15 C 68.66 160.51 68.74 159.57 69.38 159.04 C 70.01 158.50 70.96 158.59 71.49 159.22 L 72.53 160.47 C 73.06 161.10 72.98 162.05 72.35 162.58 C 72.07 162.81 71.72 162.93 71.38 162.93 Z" fill="#ccccde" fill-opacity="0.39" fill-rule="nonzero" group-id="5,14" node-id="394" stroke="none" target-height="4.422989" target-width="4.404999" target-x="68.66" target-y="158.505"></path><path d="M 75.47 158.83 C 75.13 158.83 74.79 158.72 74.51 158.48 L 73.27 157.44 C 72.64 156.91 72.55 155.96 73.08 155.33 C 73.62 154.69 74.56 154.61 75.20 155.14 L 76.44 156.18 C 77.07 156.72 77.16 157.66 76.62 158.30 C 76.33 158.65 75.90 158.83 75.47 158.83 Z" fill="#ccccde" fill-opacity="0.39" fill-rule="nonzero" group-id="5,14" node-id="396" stroke="none" target-height="4.223999" target-width="4.6019974" target-x="72.553" target-y="154.608"></path><path d="M 78.79 154.09 C 78.54 154.09 78.28 154.03 78.04 153.89 L 76.64 153.08 C 75.93 152.66 75.68 151.75 76.10 151.03 C 76.51 150.31 77.43 150.07 78.15 150.48 L 79.55 151.29 C 80.26 151.71 80.51 152.63 80.09 153.34 C 79.81 153.82 79.31 154.09 78.79 154.09 Z" fill="#ccccde" fill-opacity="0.39" fill-rule="nonzero" group-id="5,14" node-id="398" stroke="none" target-height="4.022995" target-width="4.8250046" target-x="75.682" target-y="150.069"></path><path d="M 81.24 148.85 C 81.07 148.85 80.89 148.82 80.72 148.75 L 79.21 148.20 C 78.43 147.91 78.03 147.05 78.31 146.28 C 78.60 145.50 79.46 145.10 80.24 145.38 L 81.75 145.94 C 82.53 146.22 82.93 147.08 82.65 147.86 C 82.42 148.47 81.85 148.85 81.24 148.85 Z" fill="#ccccde" fill-opacity="0.39" fill-rule="nonzero" group-id="5,14" node-id="400" stroke="none" target-height="3.75" target-width="4.903" target-x="78.028" target-y="145.096"></path><path d="M 82.74 143.26 C 82.65 143.26 82.56 143.25 82.48 143.23 L 80.88 142.95 C 80.07 142.81 79.52 142.03 79.67 141.21 C 79.81 140.40 80.60 139.85 81.41 140.00 L 83.00 140.28 C 83.82 140.43 84.36 141.20 84.22 142.02 C 84.09 142.75 83.45 143.26 82.74 143.26 Z" fill="#ccccde" fill-opacity="0.39" fill-rule="nonzero" group-id="5,14" node-id="402" stroke="none" target-height="3.401001" target-width="4.836998" target-x="79.524" target-y="139.855"></path><path d="M 83.24 137.49 L 81.62 137.49 C 80.80 137.49 80.12 136.82 80.12 135.99 C 80.12 135.16 80.80 134.49 81.62 134.49 L 83.24 134.49 C 84.07 134.49 84.74 135.16 84.74 135.99 C 84.74 136.82 84.07 137.49 83.24 137.49 Z" fill="#ccccde" fill-opacity="0.39" fill-rule="nonzero" group-id="5,14" node-id="404" stroke="none" target-height="3" target-width="4.6190033" target-x="80.125" target-y="134.488"></path><path d="M 81.14 132.00 C 80.43 132.00 79.80 131.49 79.67 130.76 C 79.53 129.95 80.07 129.17 80.89 129.03 L 82.48 128.75 C 83.30 128.60 84.07 129.15 84.22 129.97 C 84.36 130.78 83.81 131.56 83.00 131.70 L 81.40 131.98 C 81.32 132.00 81.23 132.00 81.14 132.00 Z" fill="#ccccde" fill-opacity="0.39" fill-rule="nonzero" group-id="5,14" node-id="406" stroke="none" target-height="3.399002" target-width="4.8339996" target-x="79.525" target-y="128.603"></path><path d="M 79.72 126.69 C 79.11 126.69 78.53 126.31 78.31 125.70 C 78.03 124.92 78.43 124.06 79.20 123.78 L 80.72 123.22 C 81.50 122.94 82.36 123.34 82.65 124.12 C 82.93 124.89 82.53 125.76 81.75 126.04 L 80.23 126.60 C 80.06 126.66 79.89 126.69 79.72 126.69 Z" fill="#ccccde" fill-opacity="0.39" fill-rule="nonzero" group-id="5,14" node-id="408" stroke="none" target-height="3.7479935" target-width="4.905998" target-x="78.026" target-y="122.939"></path><path d="M 77.39 121.69 C 76.88 121.69 76.37 121.43 76.09 120.94 C 75.68 120.23 75.92 119.31 76.64 118.90 L 78.04 118.09 C 78.76 117.67 79.68 117.92 80.09 118.63 C 80.51 119.35 80.26 120.27 79.55 120.68 L 78.14 121.49 C 77.91 121.63 77.65 121.69 77.39 121.69 Z" fill="#ccccde" fill-opacity="0.39" fill-rule="nonzero" group-id="5,14" node-id="410" stroke="none" target-height="4.0250015" target-width="4.828003" target-x="75.679" target-y="117.67"></path><path d="M 74.23 117.18 C 73.81 117.18 73.38 117.00 73.08 116.65 C 72.55 116.01 72.64 115.07 73.27 114.53 L 74.51 113.50 C 75.14 112.96 76.09 113.05 76.62 113.68 C 77.16 114.32 77.07 115.26 76.44 115.79 L 75.20 116.83 C 74.92 117.07 74.58 117.18 74.23 117.18 Z" fill="#ccccde" fill-opacity="0.39" fill-rule="nonzero" group-id="5,14" node-id="412" stroke="none" target-height="4.2210007" target-width="4.602997" target-x="72.553" target-y="112.963"></path><path d="M 70.34 113.29 C 70.00 113.29 69.66 113.17 69.37 112.94 C 68.74 112.41 68.66 111.46 69.19 110.83 L 70.23 109.59 C 70.77 108.95 71.71 108.87 72.35 109.40 C 72.98 109.94 73.06 110.88 72.53 111.52 L 71.49 112.76 C 71.19 113.11 70.77 113.29 70.34 113.29 Z" fill="#ccccde" fill-opacity="0.39" fill-rule="nonzero" group-id="5,14" node-id="414" stroke="none" target-height="4.419998" target-width="4.404007" target-x="68.659" target-y="108.871"></path><path d="M 65.83 110.13 C 65.58 110.13 65.32 110.07 65.08 109.93 C 64.36 109.52 64.12 108.60 64.53 107.88 L 65.34 106.48 C 65.76 105.76 66.67 105.52 67.39 105.93 C 68.11 106.35 68.35 107.27 67.94 107.98 L 67.13 109.38 C 66.85 109.86 66.35 110.13 65.83 110.13 Z" fill="#ccccde" fill-opacity="0.39" fill-rule="nonzero" group-id="5,14" node-id="416" stroke="none" target-height="4.616005" target-width="4.2369995" target-x="64.117" target-y="105.518"></path><path d="M 60.84 107.81 C 60.67 107.81 60.50 107.78 60.33 107.72 C 59.55 107.43 59.15 106.57 59.43 105.79 L 59.98 104.27 C 60.27 103.49 61.13 103.09 61.91 103.38 C 62.69 103.66 63.09 104.52 62.80 105.30 L 62.25 106.82 C 62.03 107.43 61.45 107.81 60.84 107.81 Z" fill="#ccccde" fill-opacity="0.39" fill-rule="nonzero" group-id="5,14" node-id="418" stroke="none" target-height="4.7149963" target-width="3.939003" target-x="59.148" target-y="103.092"></path><path d="M 55.52 106.38 C 55.44 106.38 55.35 106.38 55.26 106.36 C 54.45 106.22 53.90 105.44 54.04 104.62 L 54.33 103.03 C 54.47 102.21 55.25 101.66 56.06 101.81 C 56.88 101.95 57.42 102.73 57.28 103.55 L 57.00 105.14 C 56.87 105.87 56.24 106.38 55.52 106.38 Z" fill="#ccccde" fill-opacity="0.39" fill-rule="nonzero" group-id="5,14" node-id="420" stroke="none" target-height="4.719002" target-width="3.5239983" target-x="53.9" target-y="101.664"></path></g><path d="M 50.04 109.68 C 49.21 109.68 48.54 109.01 48.54 108.18 L 48.54 102.78 C 48.54 101.95 49.21 101.28 50.04 101.28 C 50.87 101.28 51.54 101.95 51.54 102.78 L 51.54 108.18 C 51.54 109.00 50.87 109.68 50.04 109.68 Z" fill="#ccccde" fill-rule="nonzero" group-id="5" node-id="423" stroke="none" target-height="8.395004" target-width="3" target-x="48.536" target-y="101.282"></path><path d="M 16.83 137.49 C 16.00 137.49 15.33 136.82 15.33 135.99 C 15.33 135.16 16.00 134.49 16.83 134.49 L 22.23 134.49 L 22.23 134.49 C 23.06 134.49 23.73 135.16 23.73 135.99 C 23.73 136.82 23.06 137.49 22.23 137.49 L 16.83 137.49 L 16.83 137.49 Z" fill="#ccccde" fill-rule="nonzero" group-id="5" node-id="425" stroke="none" target-height="3.001999" target-width="8.396001" target-x="15.332" target-y="134.488"></path><path d="M 50.04 170.69 C 49.21 170.69 48.54 170.02 48.54 169.19 L 48.54 163.80 C 48.54 162.97 49.21 162.30 50.04 162.30 C 50.87 162.30 51.54 162.97 51.54 163.80 L 51.54 169.19 C 51.54 170.02 50.87 170.69 50.04 170.69 Z" fill="#ccccde" fill-rule="nonzero" group-id="5" node-id="427" stroke="none" target-height="8.395004" target-width="3.0009995" target-x="48.537" target-y="162.3"></path><path d="M 83.24 137.49 L 77.85 137.49 C 77.02 137.49 76.35 136.82 76.35 135.99 C 76.35 135.16 77.02 134.49 77.85 134.49 L 83.24 134.49 C 84.07 134.49 84.74 135.16 84.74 135.99 C 84.74 136.82 84.07 137.49 83.24 137.49 Z" fill="#ccccde" fill-rule="nonzero" group-id="5" node-id="429" stroke="none" target-height="3" target-width="8.391998" target-x="76.35" target-y="134.488"></path><path d="M 66.50 154.05 C 66.12 154.05 65.73 153.90 65.44 153.61 L 48.93 137.09 C 48.65 136.81 48.49 136.43 48.49 136.03 C 48.49 135.63 48.65 135.25 48.93 134.97 L 61.89 122.11 C 62.47 121.53 63.42 121.53 64.01 122.12 C 64.59 122.71 64.59 123.66 64.00 124.24 L 52.11 136.04 L 67.56 151.49 C 68.15 152.07 68.15 153.02 67.56 153.61 C 67.27 153.90 66.89 154.05 66.50 154.05 Z" fill="#ccccde" fill-rule="nonzero" group-id="5" node-id="431" stroke="none" target-height="32.520996" target-width="19.661003" target-x="48.488" target-y="121.526"></path><path d="M 29.50 148.45 C 29.33 148.45 29.16 148.36 29.07 148.20 C 28.93 147.96 29.01 147.66 29.25 147.52 L 49.74 135.60 C 49.98 135.46 50.28 135.54 50.42 135.78 C 50.56 136.02 50.48 136.33 50.24 136.47 L 29.75 148.38 C 29.67 148.43 29.59 148.45 29.50 148.45 Z" fill="#ccccde" fill-rule="nonzero" group-id="5" node-id="433" stroke="none" target-height="12.988998" target-width="21.633001" target-x="28.928" target-y="135.46"></path><path d="M 52.48 136.09 C 52.48 137.48 51.36 138.61 49.96 138.61 C 48.57 138.61 47.44 137.48 47.44 136.09 C 47.44 134.70 48.57 133.57 49.96 133.57 C 51.36 133.57 52.48 134.70 52.48 136.09 Z" fill="#f0f0ff" fill-rule="nonzero" group-id="5,15" node-id="437" stroke="none" target-height="5.0399933" target-width="5.040001" target-x="47.444" target-y="133.572"></path><path d="M 49.96 140.11 C 47.75 140.11 45.94 138.31 45.94 136.09 C 45.94 133.87 47.75 132.07 49.96 132.07 C 52.18 132.07 53.98 133.87 53.98 136.09 C 53.98 138.31 52.18 140.11 49.96 140.11 Z M 49.96 135.07 C 49.40 135.07 48.94 135.53 48.94 136.09 C 48.94 136.66 49.40 137.11 49.96 137.11 C 50.53 137.11 50.98 136.66 50.98 136.09 C 50.98 135.53 50.53 135.07 49.96 135.07 Z" fill="#ccccde" fill-rule="nonzero" group-id="5,15" node-id="439" stroke="none" target-height="8.041" target-width="8.040001" target-x="45.944" target-y="132.071"></path><path d="M 7.08 142.97 C 4.17 119.06 21.20 97.32 45.11 94.41 C 69.01 91.50 90.75 108.53 93.66 132.44 C 94.05 135.60 94.07 138.72 93.79 141.76 C 94.37 137.89 94.45 133.88 93.96 129.81 C 91.00 105.44 68.84 88.09 44.47 91.05 C 20.10 94.02 2.75 116.17 5.72 140.54 C 6.55 147.34 8.87 153.60 12.32 159.01 C 9.62 154.20 7.79 148.79 7.08 142.97 Z" fill="#ffffff" fill-opacity="0.58" fill-rule="nonzero" group-id="5,16" node-id="444" stroke="none" target-height="70.926" target-width="91.698006" target-x="2.754" target-y="88.089"></path><path d="M 49.94 182.65 C 24.27 182.65 3.38 161.76 3.38 136.09 C 3.38 110.41 24.27 89.53 49.94 89.53 C 75.61 89.53 96.50 110.41 96.50 136.09 C 96.50 161.76 75.61 182.65 49.94 182.65 Z M 49.94 92.53 C 25.92 92.53 6.38 112.07 6.38 136.09 C 6.38 160.10 25.92 179.65 49.94 179.65 C 73.96 179.65 93.50 160.10 93.50 136.09 C 93.50 112.07 73.96 92.53 49.94 92.53 Z" fill="#ccccde" fill-rule="nonzero" group-id="5" node-id="447" stroke="none" target-height="93.118004" target-width="93.118" target-x="3.382" target-y="89.527"></path><path d="M 49.99 175.17 C 28.41 175.17 10.85 157.62 10.85 136.03 C 10.85 114.45 28.41 96.90 49.99 96.90 C 71.57 96.90 89.13 114.45 89.13 136.03 C 89.13 157.62 71.57 175.17 49.99 175.17 Z M 49.99 99.90 C 30.06 99.90 13.85 116.11 13.85 136.03 C 13.85 155.96 30.06 172.17 49.99 172.17 C 69.92 172.17 86.13 155.96 86.13 136.03 C 86.13 116.11 69.92 99.90 49.99 99.90 Z" fill="#ccccde" fill-rule="nonzero" group-id="5" node-id="449" stroke="none" target-height="78.273994" target-width="78.274" target-x="10.852" target-y="96.898"></path><path d="M 89.95 117.66 C 92.06 122.77 93.22 128.36 93.22 134.22 C 93.22 158.31 73.70 177.83 49.61 177.83 C 25.53 177.83 6.00 158.31 6.00 134.22 C 6.00 131.04 6.35 127.94 7.00 124.95 C 5.96 128.72 5.39 132.70 5.39 136.80 C 5.39 161.35 25.29 181.25 49.84 181.25 C 74.39 181.25 94.28 161.35 94.28 136.80 C 94.28 129.95 92.73 123.46 89.95 117.66 Z" fill="#6e6e96" fill-opacity="0.15" fill-rule="nonzero" group-id="5,17" node-id="453" stroke="none" target-height="63.588005" target-width="88.889" target-x="5.392" target-y="117.658"></path><path d="M 74.49 112.35 C 68.25 105.99 59.56 102.04 49.94 102.04 C 30.93 102.04 15.53 117.45 15.53 136.45 C 15.53 143.05 17.39 149.22 20.62 154.46 L 74.49 112.35 Z" fill="#ffffff" fill-opacity="0.54" fill-rule="nonzero" group-id="5,18" node-id="458" stroke="none" target-height="52.415993" target-width="58.961" target-x="15.53" target-y="102.04"></path><path d="M 59.91 99.30 C 73.57 104.37 83.30 117.52 83.30 132.94 C 83.30 152.75 67.24 168.81 47.43 168.81 C 28.50 168.81 13.00 154.14 11.67 135.54 C 11.74 156.27 28.56 173.05 49.30 173.05 C 70.09 173.05 86.94 156.20 86.94 135.41 C 86.94 118.31 75.53 103.89 59.91 99.30 Z" fill="#6e6e96" fill-opacity="0.1" fill-rule="nonzero" group-id="5,19" node-id="463" stroke="none" target-height="73.746994" target-width="75.272" target-x="11.666" target-y="99.304"></path></g><g node-id="855"><g node-id="869"><path d="M 196.22 245.11 C 196.22 247.17 194.53 248.86 192.46 248.86 L 59.81 248.86 C 57.74 248.86 56.05 247.18 56.05 245.11 L 56.05 168.71 C 56.05 166.65 57.74 164.96 59.81 164.96 L 192.46 164.96 C 194.53 164.96 196.22 166.65 196.22 168.71 L 196.22 245.11 L 196.22 245.11 Z" fill="#d5d7e0" fill-rule="nonzero" group-id="6,20" node-id="470" stroke="none" target-height="83.907" target-width="140.161" target-x="56.054" target-y="164.957"></path></g><g node-id="870"><path d="M 192.09 164.52 L 59.43 164.52 C 57.37 164.52 55.68 166.21 55.68 168.27 L 55.68 172.78 C 55.68 170.72 57.37 169.02 59.43 169.02 L 192.09 169.02 C 194.15 169.02 195.84 170.71 195.84 172.78 L 195.84 168.27 C 195.84 166.21 194.15 164.52 192.09 164.52 Z" fill="#ffffff" fill-opacity="0.45" fill-rule="nonzero" group-id="6,21" node-id="475" stroke="none" target-height="8.263992" target-width="140.163" target-x="55.677" target-y="164.516"></path></g><g node-id="871"><path d="M 142.60 237.89 C 142.60 239.13 141.59 240.15 140.35 240.15 L 109.47 240.15 C 108.23 240.15 107.21 239.13 107.21 237.89 L 107.21 226.56 C 107.21 225.33 108.23 224.31 109.47 224.31 L 140.35 224.31 C 141.59 224.31 142.60 225.33 142.60 226.56 L 142.60 237.89 L 142.60 237.89 Z" fill="#f0f0f0" fill-rule="nonzero" group-id="6,22" node-id="480" stroke="none" target-height="15.830002" target-width="35.390007" target-x="107.214" target-y="224.315"></path><path d="M 140.35 241.65 L 109.47 241.65 C 107.40 241.65 105.71 239.96 105.71 237.89 L 105.71 226.56 C 105.71 224.50 107.40 222.81 109.47 222.81 L 140.35 222.81 C 142.42 222.81 144.10 224.50 144.10 226.56 L 144.10 237.89 C 144.10 239.96 142.42 241.65 140.35 241.65 Z M 109.47 225.81 C 109.06 225.81 108.71 226.16 108.71 226.56 L 108.71 237.89 C 108.71 238.30 109.06 238.64 109.47 238.64 L 140.35 238.64 C 140.76 238.64 141.10 238.30 141.10 237.89 L 141.10 226.56 C 141.10 226.16 140.76 225.81 140.35 225.81 L 109.47 225.81 Z" fill="#6e6e96" fill-rule="nonzero" group-id="6,22" node-id="482" stroke="none" target-height="18.830002" target-width="38.390007" target-x="105.714" target-y="222.815"></path><path d="M 107.21 233.28 L 142.60 233.28 L 142.60 236.28 L 107.21 236.28 Z" fill="#6e6e96" fill-rule="nonzero" group-id="6,22" node-id="484" stroke="none" target-height="3" target-width="35.391006" target-x="107.213" target-y="233.284"></path><path d="M 123.41 234.78 L 126.41 234.78 L 126.41 240.14 L 123.41 240.14 Z" fill="#6e6e96" fill-rule="nonzero" group-id="6,22" node-id="486" stroke="none" target-height="5.3600006" target-width="3" target-x="123.407" target-y="234.784"></path></g><g node-id="872"><path d="M 192.46 250.36 L 59.81 250.36 C 56.91 250.36 54.55 248.01 54.55 245.11 L 54.55 168.71 C 54.55 165.81 56.91 163.46 59.81 163.46 L 192.46 163.46 C 195.36 163.46 197.72 165.81 197.72 168.71 L 197.72 245.11 C 197.72 248.01 195.36 250.36 192.46 250.36 Z M 59.81 166.46 C 58.56 166.46 57.55 167.47 57.55 168.71 L 57.55 245.11 C 57.55 246.35 58.56 247.36 59.81 247.36 L 192.46 247.36 C 193.70 247.36 194.72 246.35 194.72 245.11 L 194.72 168.71 C 194.72 167.47 193.70 166.46 192.46 166.46 L 59.81 166.46 Z" fill="#6e6e96" fill-rule="nonzero" group-id="6,23" node-id="491" stroke="none" target-height="86.907" target-width="143.161" target-x="54.554" target-y="163.457"></path></g><g node-id="873"><path d="M 197.97 157.18 C 197.97 159.42 196.13 161.25 193.90 161.25 L 58.63 161.25 C 56.38 161.25 54.55 159.42 54.55 157.18 L 54.55 73.96 C 54.55 71.72 56.38 69.88 58.63 69.88 L 193.90 69.88 C 196.13 69.88 197.97 71.72 197.97 73.96 L 197.97 157.18 L 197.97 157.18 Z" fill="#d0d2db" fill-rule="nonzero" group-id="6,24" node-id="496" stroke="none" target-height="91.370995" target-width="143.417" target-x="54.551" target-y="69.883"></path></g><path d="M 62.69 78.31 L 189.67 78.31 L 189.67 150.43 L 62.69 150.43 Z" fill="#a3d8ff" fill-rule="nonzero" group-id="6" node-id="499" stroke="none" target-height="72.120995" target-width="126.98401" target-x="62.689" target-y="78.305"></path><path d="M 193.90 70.70 L 58.63 70.70 C 56.38 70.70 54.55 72.53 54.55 74.77 L 54.55 77.49 C 54.55 75.25 56.38 73.42 58.63 73.42 L 193.90 73.42 C 196.13 73.42 197.97 75.25 197.97 77.49 L 197.97 74.77 C 197.97 72.53 196.13 70.70 193.90 70.70 Z" fill="#f2f5ff" fill-opacity="0.57" fill-rule="nonzero" group-id="6,25" node-id="503" stroke="none" target-height="6.7910004" target-width="143.417" target-x="54.551" target-y="70.699"></path><path d="M 193.90 162.75 L 58.63 162.75 C 55.55 162.75 53.05 160.25 53.05 157.18 L 53.05 73.96 C 53.05 70.88 55.55 68.38 58.63 68.38 L 193.90 68.38 C 196.97 68.38 199.47 70.88 199.47 73.96 L 199.47 157.18 C 199.47 160.25 196.97 162.75 193.90 162.75 Z M 58.63 71.38 C 57.21 71.38 56.05 72.54 56.05 73.96 L 56.05 157.18 C 56.05 158.60 57.21 159.75 58.63 159.75 L 193.90 159.75 C 195.31 159.75 196.47 158.60 196.47 157.18 L 196.47 73.96 C 196.47 72.54 195.31 71.38 193.90 71.38 L 58.63 71.38 Z" fill="#6e6e96" fill-rule="nonzero" group-id="6,26" node-id="508" stroke="none" target-height="94.370995" target-width="146.417" target-x="53.051" target-y="68.383"></path><path d="M 192.46 244.17 L 59.81 244.17 C 57.74 244.17 56.05 242.48 56.05 240.42 L 56.05 245.92 C 56.05 247.99 57.74 249.68 59.81 249.68 L 192.46 249.68 C 194.53 249.68 196.22 247.99 196.22 245.92 L 196.22 240.42 C 196.22 242.48 194.53 244.17 192.46 244.17 Z" fill="#6e6e96" fill-opacity="0.15" fill-rule="nonzero" group-id="6,27" node-id="513" stroke="none" target-height="9.261993" target-width="140.161" target-x="56.054" target-y="240.416"></path><path d="M 62.69 78.31 L 189.67 78.31 L 189.67 83.47 L 62.69 83.47 Z" fill="#6e6e96" fill-opacity="0.15" fill-rule="nonzero" group-id="6,28" node-id="518" stroke="none" target-height="5.1620026" target-width="126.98401" target-x="62.689" target-y="78.305"></path><path d="M 147.30 150.43 L 189.74 103.09 L 189.74 150.43 Z" fill="#ffffff" fill-opacity="0.25" fill-rule="nonzero" group-id="6,29" node-id="523" stroke="none" target-height="47.333992" target-width="42.442993" target-x="147.296" target-y="103.092"></path><path d="M 135.75 74.92 L 118.64 74.92 C 117.81 74.92 117.14 74.24 117.14 73.42 L 117.14 69.88 C 117.14 69.06 117.81 68.38 118.64 68.38 L 135.75 68.38 C 136.58 68.38 137.25 69.06 137.25 69.88 L 137.25 73.42 C 137.25 74.24 136.58 74.92 135.75 74.92 Z M 120.14 71.92 L 134.25 71.92 L 134.25 71.38 L 120.14 71.38 L 120.14 71.92 Z" fill="#6e6e96" fill-rule="nonzero" group-id="6" node-id="526" stroke="none" target-height="6.530998" target-width="20.114006" target-x="117.137" target-y="68.384"></path><path d="M 65.92 160.01 L 82.94 160.01 L 82.94 166.49 L 65.92 166.49 Z" fill="#dadce6" fill-rule="nonzero" group-id="6,30" node-id="530" stroke="none" target-height="6.473999" target-width="17.025002" target-x="65.919" target-y="160.011"></path><path d="M 82.94 167.98 L 65.92 167.98 C 65.09 167.98 64.42 167.31 64.42 166.48 L 64.42 160.01 C 64.42 159.18 65.09 158.51 65.92 158.51 L 82.94 158.51 C 83.77 158.51 84.44 159.18 84.44 160.01 L 84.44 166.48 C 84.44 167.31 83.77 167.98 82.94 167.98 Z M 67.42 164.98 L 81.44 164.98 L 81.44 161.51 L 67.42 161.51 L 67.42 164.98 Z" fill="#6e6e96" fill-rule="nonzero" group-id="6,30" node-id="532" stroke="none" target-height="9.473999" target-width="20.025002" target-x="64.419" target-y="158.51"></path><path d="M 167.86 160.01 L 185.41 160.01 L 185.41 166.49 L 167.86 166.49 Z" fill="#dadce6" fill-rule="nonzero" group-id="6,31" node-id="537" stroke="none" target-height="6.473999" target-width="17.549011" target-x="167.859" target-y="160.011"></path><path d="M 185.41 167.98 L 167.86 167.98 C 167.03 167.98 166.36 167.31 166.36 166.48 L 166.36 160.01 C 166.36 159.18 167.03 158.51 167.86 158.51 L 185.41 158.51 C 186.24 158.51 186.91 159.18 186.91 160.01 L 186.91 166.48 C 186.91 167.31 186.24 167.98 185.41 167.98 Z M 169.36 164.98 L 183.91 164.98 L 183.91 161.51 L 169.36 161.51 L 169.36 164.98 Z" fill="#6e6e96" fill-rule="nonzero" group-id="6,31" node-id="539" stroke="none" target-height="9.473999" target-width="20.549011" target-x="166.359" target-y="158.51"></path><path d="M 65.92 163.66 L 81.31 163.66 L 81.31 166.48 L 65.92 166.48 Z" fill="#6e6e96" fill-opacity="0.15" fill-rule="nonzero" group-id="6,32" node-id="544" stroke="none" target-height="2.822998" target-width="15.395004" target-x="65.919" target-y="163.661"></path><path d="M 167.86 163.66 L 185.41 163.66 L 185.41 166.48 L 167.86 166.48 Z" fill="#6e6e96" fill-opacity="0.15" fill-rule="nonzero" group-id="6,33" node-id="549" stroke="none" target-height="2.821991" target-width="17.549011" target-x="167.859" target-y="163.662"></path><path d="M 107.21 234.93 L 142.60 234.93 L 142.60 237.93 L 107.21 237.93 Z" fill="#6e6e96" fill-opacity="0.15" fill-rule="nonzero" group-id="6,34" node-id="554" stroke="none" target-height="3" target-width="35.391006" target-x="107.213" target-y="234.926"></path><path d="M 107.21 225.06 L 142.60 225.06 L 142.60 228.06 L 107.21 228.06 Z" fill="#6e6e96" fill-opacity="0.15" fill-rule="nonzero" group-id="6,35" node-id="559" stroke="none" target-height="3" target-width="35.391006" target-x="107.213" target-y="225.064"></path><path d="M 100.33 189.38 L 100.33 185.43 C 100.33 184.62 99.57 183.97 98.64 183.97 L 93.66 183.97 C 92.73 183.97 91.97 184.62 91.97 185.43 L 91.97 189.38 C 91.97 190.18 92.73 190.83 93.66 190.83 L 98.64 190.83 C 99.57 190.83 100.33 190.18 100.33 189.38 Z" fill="#6e6e96" fill-opacity="0.31350002" fill-rule="nonzero" group-id="6,36,43" node-id="566" stroke="none" target-height="6.8630066" target-width="8.365997" target-x="91.969" target-y="183.969"></path><path d="M 89.14 189.38 L 89.14 185.43 C 89.14 184.62 88.38 183.97 87.45 183.97 L 82.47 183.97 C 81.54 183.97 80.78 184.62 80.78 185.43 L 80.78 189.38 C 80.78 190.18 81.54 190.83 82.47 190.83 L 87.45 190.83 C 88.38 190.83 89.14 190.18 89.14 189.38 Z" fill="#6e6e96" fill-opacity="0.31350002" fill-rule="nonzero" group-id="6,36,44" node-id="571" stroke="none" target-height="6.8630066" target-width="8.365997" target-x="80.777" target-y="183.969"></path><path d="M 109.83 190.83 C 110.77 190.83 111.53 190.18 111.53 189.38 L 111.53 185.43 C 111.53 184.62 110.77 183.97 109.83 183.97 L 104.86 183.97 C 103.92 183.97 103.16 184.62 103.16 185.43 L 103.16 189.38 C 103.16 190.18 103.92 190.83 104.86 190.83 L 109.83 190.83 Z" fill="#6e6e96" fill-opacity="0.31350002" fill-rule="nonzero" group-id="6,36,45" node-id="576" stroke="none" target-height="6.8630066" target-width="8.366997" target-x="103.161" target-y="183.969"></path><path d="M 143.41 190.83 C 144.34 190.83 145.10 190.18 145.10 189.38 L 145.10 185.43 C 145.10 184.62 144.34 183.97 143.41 183.97 L 138.43 183.97 C 137.50 183.97 136.74 184.62 136.74 185.43 L 136.74 189.38 C 136.74 190.18 137.50 190.83 138.43 190.83 L 143.41 190.83 Z" fill="#6e6e96" fill-opacity="0.31350002" fill-rule="nonzero" group-id="6,36,46" node-id="581" stroke="none" target-height="6.8630066" target-width="8.365997" target-x="136.739" target-y="183.969"></path><path d="M 121.03 190.83 C 121.96 190.83 122.72 190.18 122.72 189.38 L 122.72 185.43 C 122.72 184.62 121.96 183.97 121.03 183.97 L 116.05 183.97 C 115.12 183.97 114.35 184.62 114.35 185.43 L 114.35 189.38 C 114.35 190.18 115.12 190.83 116.05 190.83 L 121.03 190.83 Z" fill="#6e6e96" fill-opacity="0.31350002" fill-rule="nonzero" group-id="6,36,47" node-id="586" stroke="none" target-height="6.8630066" target-width="8.367004" target-x="114.353" target-y="183.969"></path><path d="M 127.24 190.83 L 132.22 190.83 C 133.15 190.83 133.91 190.18 133.91 189.38 L 133.91 185.43 C 133.91 184.62 133.15 183.97 132.22 183.97 L 127.24 183.97 C 126.31 183.97 125.55 184.62 125.55 185.43 L 125.55 189.38 C 125.55 190.18 126.31 190.83 127.24 190.83 Z" fill="#6e6e96" fill-opacity="0.31350002" fill-rule="nonzero" group-id="6,36,48" node-id="591" stroke="none" target-height="6.8630066" target-width="8.367996" target-x="125.545" target-y="183.969"></path><path d="M 154.60 190.83 C 155.53 190.83 156.29 190.18 156.29 189.38 L 156.29 185.43 C 156.29 184.62 155.53 183.97 154.60 183.97 L 149.62 183.97 C 148.69 183.97 147.93 184.62 147.93 185.43 L 147.93 189.38 C 147.93 190.18 148.69 190.83 149.62 190.83 L 154.60 190.83 Z" fill="#6e6e96" fill-opacity="0.31350002" fill-rule="nonzero" group-id="6,36,49" node-id="596" stroke="none" target-height="6.8630066" target-width="8.363007" target-x="147.931" target-y="183.969"></path><path d="M 159.12 185.43 L 159.12 189.38 C 159.12 190.18 159.88 190.83 160.82 190.83 L 165.79 190.83 C 166.72 190.83 167.49 190.18 167.49 189.38 L 167.49 185.43 C 167.49 184.63 166.72 183.97 165.79 183.97 L 160.82 183.97 C 159.88 183.97 159.12 184.63 159.12 185.43 Z" fill="#6e6e96" fill-opacity="0.31350002" fill-rule="nonzero" group-id="6,36,50" node-id="601" stroke="none" target-height="6.8630066" target-width="8.362991" target-x="159.123" target-y="183.969"></path><path d="M 71.28 190.83 L 76.26 190.83 C 77.19 190.83 77.95 190.18 77.95 189.38 L 77.95 185.43 C 77.95 184.62 77.19 183.97 76.26 183.97 L 71.28 183.97 C 70.35 183.97 69.58 184.62 69.58 185.43 L 69.58 189.38 C 69.58 190.18 70.35 190.83 71.28 190.83 Z" fill="#6e6e96" fill-opacity="0.31350002" fill-rule="nonzero" group-id="6,36,51" node-id="606" stroke="none" target-height="6.8630066" target-width="8.365997" target-x="69.584" target-y="183.969"></path><path d="M 181.22 183.97 L 172.01 183.97 C 171.07 183.97 170.31 184.62 170.31 185.43 L 170.31 189.38 C 170.31 190.18 171.08 190.83 172.01 190.83 L 181.22 190.83 C 182.15 190.83 182.91 190.18 182.91 189.38 L 182.91 185.43 C 182.91 184.63 182.15 183.97 181.22 183.97 Z" fill="#6e6e96" fill-opacity="0.31350002" fill-rule="nonzero" group-id="6,36,52" node-id="611" stroke="none" target-height="6.8630066" target-width="12.598999" target-x="170.315" target-y="183.969"></path><path d="M 146.53 197.80 L 146.53 193.85 C 146.53 193.05 145.76 192.40 144.83 192.40 L 140.27 192.40 C 139.34 192.40 138.57 193.05 138.57 193.85 L 138.57 197.80 C 138.57 198.60 139.34 199.26 140.27 199.26 L 144.83 199.26 C 145.77 199.26 146.53 198.60 146.53 197.80 Z" fill="#6e6e96" fill-opacity="0.31350002" fill-rule="nonzero" group-id="6,36,53" node-id="616" stroke="none" target-height="6.8639984" target-width="7.949997" target-x="138.575" target-y="192.395"></path><path d="M 126.16 197.80 L 126.16 193.85 C 126.16 193.05 125.40 192.40 124.47 192.40 L 119.90 192.40 C 118.97 192.40 118.20 193.05 118.20 193.85 L 118.20 197.80 C 118.20 198.60 118.97 199.26 119.90 199.26 L 124.47 199.26 C 125.40 199.26 126.16 198.60 126.16 197.80 Z" fill="#6e6e96" fill-opacity="0.31350002" fill-rule="nonzero" group-id="6,36,54" node-id="621" stroke="none" target-height="6.8639984" target-width="7.9539948" target-x="118.204" target-y="192.395"></path><path d="M 136.34 197.80 L 136.34 193.85 C 136.34 193.05 135.58 192.40 134.65 192.40 L 130.08 192.40 C 129.15 192.40 128.39 193.05 128.39 193.85 L 128.39 197.80 C 128.39 198.60 129.15 199.26 130.08 199.26 L 134.65 199.26 C 135.58 199.26 136.34 198.60 136.34 197.80 Z" fill="#6e6e96" fill-opacity="0.31350002" fill-rule="nonzero" group-id="6,36,55" node-id="626" stroke="none" target-height="6.8639984" target-width="7.9529877" target-x="128.389" target-y="192.395"></path><path d="M 166.90 197.80 L 166.90 193.85 C 166.90 193.05 166.13 192.40 165.20 192.40 L 160.64 192.40 C 159.71 192.40 158.94 193.05 158.94 193.85 L 158.94 197.80 C 158.94 198.60 159.71 199.26 160.64 199.26 L 165.20 199.26 C 166.13 199.26 166.90 198.60 166.90 197.80 Z" fill="#6e6e96" fill-opacity="0.31350002" fill-rule="nonzero" group-id="6,36,56" node-id="631" stroke="none" target-height="6.8639984" target-width="7.949997" target-x="158.945" target-y="192.395"></path><path d="M 89.34 199.26 L 93.91 199.26 C 94.84 199.26 95.60 198.60 95.60 197.80 L 95.60 193.85 C 95.60 193.05 94.84 192.39 93.91 192.39 L 89.34 192.39 C 88.41 192.39 87.65 193.05 87.65 193.85 L 87.65 197.80 C 87.65 198.60 88.41 199.26 89.34 199.26 Z" fill="#6e6e96" fill-opacity="0.31350002" fill-rule="nonzero" group-id="6,36,57" node-id="636" stroke="none" target-height="6.8639984" target-width="7.9539948" target-x="87.65" target-y="192.393"></path><path d="M 99.53 199.26 L 104.10 199.26 C 105.03 199.26 105.79 198.60 105.79 197.80 L 105.79 193.85 C 105.79 193.05 105.03 192.39 104.10 192.39 L 99.53 192.39 C 98.60 192.39 97.83 193.05 97.83 193.85 L 97.83 197.80 C 97.83 198.60 98.60 199.26 99.53 199.26 Z" fill="#6e6e96" fill-opacity="0.31350002" fill-rule="nonzero" group-id="6,36,58" node-id="641" stroke="none" target-height="6.8639984" target-width="7.955002" target-x="97.834" target-y="192.393"></path><path d="M 150.45 199.26 L 155.02 199.26 C 155.95 199.26 156.71 198.60 156.71 197.80 L 156.71 193.85 C 156.71 193.05 155.95 192.39 155.02 192.39 L 150.45 192.39 C 149.52 192.39 148.76 193.05 148.76 193.85 L 148.76 197.80 C 148.76 198.60 149.52 199.26 150.45 199.26 Z" fill="#6e6e96" fill-opacity="0.31350002" fill-rule="nonzero" group-id="6,36,59" node-id="646" stroke="none" target-height="6.8639984" target-width="7.952011" target-x="148.758" target-y="192.393"></path><path d="M 115.97 197.80 L 115.97 193.85 C 115.97 193.05 115.21 192.40 114.28 192.40 L 109.71 192.40 C 108.78 192.40 108.02 193.05 108.02 193.85 L 108.02 197.80 C 108.02 198.60 108.78 199.26 109.71 199.26 L 114.28 199.26 C 115.21 199.26 115.97 198.60 115.97 197.80 Z" fill="#6e6e96" fill-opacity="0.31350002" fill-rule="nonzero" group-id="6,36,60" node-id="651" stroke="none" target-height="6.8639984" target-width="7.9540024" target-x="108.02" target-y="192.395"></path><path d="M 69.58 197.80 C 69.58 198.60 70.35 199.26 71.28 199.26 L 83.63 199.26 C 84.56 199.26 85.32 198.60 85.32 197.80 L 85.32 193.85 C 85.32 193.05 84.56 192.40 83.63 192.40 L 71.28 192.40 C 70.35 192.40 69.58 193.05 69.58 193.85 L 69.58 197.80 L 69.58 197.80 Z" fill="#6e6e96" fill-opacity="0.31350002" fill-rule="nonzero" group-id="6,36,61" node-id="656" stroke="none" target-height="6.8639984" target-width="15.7369995" target-x="69.584" target-y="192.395"></path><path d="M 181.22 192.39 L 170.85 192.39 C 169.92 192.39 169.16 193.05 169.16 193.85 L 169.16 197.80 C 169.16 198.60 169.92 199.26 170.85 199.26 L 181.22 199.26 C 182.15 199.26 182.91 198.60 182.91 197.80 L 182.91 193.85 C 182.91 193.05 182.15 192.39 181.22 192.39 Z" fill="#6e6e96" fill-opacity="0.31350002" fill-rule="nonzero" group-id="6,36,62" node-id="661" stroke="none" target-height="6.8639984" target-width="13.755997" target-x="169.158" target-y="192.393"></path><path d="M 99.56 201.13 L 94.99 201.13 C 94.06 201.13 93.30 201.78 93.30 202.59 L 93.30 206.54 C 93.30 207.34 94.06 208.00 94.99 208.00 L 99.56 208.00 C 100.49 208.00 101.25 207.34 101.25 206.54 L 101.25 202.59 C 101.25 201.78 100.49 201.13 99.56 201.13 Z" fill="#6e6e96" fill-opacity="0.31350002" fill-rule="nonzero" group-id="6,36,63" node-id="666" stroke="none" target-height="6.867996" target-width="7.9540024" target-x="93.296" target-y="201.128"></path><path d="M 105.18 208.00 L 109.74 208.00 C 110.68 208.00 111.44 207.34 111.44 206.54 L 111.44 202.59 C 111.44 201.79 110.68 201.13 109.74 201.13 L 105.18 201.13 C 104.25 201.13 103.48 201.78 103.48 202.59 L 103.48 206.54 C 103.48 207.34 104.25 208.00 105.18 208.00 Z" fill="#6e6e96" fill-opacity="0.31350002" fill-rule="nonzero" group-id="6,36,64" node-id="671" stroke="none" target-height="6.867996" target-width="7.9540024" target-x="103.484" target-y="201.128"></path><path d="M 156.12 208.00 L 160.69 208.00 C 161.62 208.00 162.38 207.34 162.38 206.54 L 162.38 202.59 C 162.38 201.79 161.62 201.13 160.69 201.13 L 156.12 201.13 C 155.19 201.13 154.43 201.78 154.43 202.59 L 154.43 206.54 C 154.43 207.34 155.19 208.00 156.12 208.00 Z" fill="#6e6e96" fill-opacity="0.31350002" fill-rule="nonzero" group-id="6,36,65" node-id="676" stroke="none" target-height="6.867996" target-width="7.951996" target-x="154.425" target-y="201.128"></path><path d="M 115.37 208.00 L 119.93 208.00 C 120.86 208.00 121.63 207.34 121.63 206.54 L 121.63 202.59 C 121.63 201.79 120.86 201.13 119.93 201.13 L 115.37 201.13 C 114.43 201.13 113.67 201.78 113.67 202.59 L 113.67 206.54 C 113.67 207.34 114.44 208.00 115.37 208.00 Z" fill="#6e6e96" fill-opacity="0.31350002" fill-rule="nonzero" group-id="6,36,66" node-id="681" stroke="none" target-height="6.867996" target-width="7.9540024" target-x="113.672" target-y="201.128"></path><path d="M 152.19 206.54 L 152.19 202.59 C 152.19 201.79 151.43 201.13 150.50 201.13 L 145.93 201.13 C 145.00 201.13 144.24 201.78 144.24 202.59 L 144.24 206.54 C 144.24 207.34 145.00 208.00 145.93 208.00 L 150.50 208.00 C 151.43 208.00 152.19 207.34 152.19 206.54 Z" fill="#6e6e96" fill-opacity="0.31350002" fill-rule="nonzero" group-id="6,36,67" node-id="686" stroke="none" target-height="6.867996" target-width="7.950989" target-x="144.24" target-y="201.128"></path><path d="M 135.74 208.00 L 140.31 208.00 C 141.24 208.00 142.00 207.34 142.00 206.54 L 142.00 202.59 C 142.00 201.79 141.24 201.13 140.31 201.13 L 135.74 201.13 C 134.81 201.13 134.05 201.78 134.05 202.59 L 134.05 206.54 C 134.05 207.34 134.81 208.00 135.74 208.00 Z" fill="#6e6e96" fill-opacity="0.31350002" fill-rule="nonzero" group-id="6,36,68" node-id="691" stroke="none" target-height="6.867996" target-width="7.9539948" target-x="134.048" target-y="201.128"></path><path d="M 125.55 208.00 L 130.12 208.00 C 131.06 208.00 131.81 207.34 131.81 206.54 L 131.81 202.59 C 131.81 201.79 131.05 201.13 130.12 201.13 L 125.55 201.13 C 124.62 201.13 123.86 201.78 123.86 202.59 L 123.86 206.54 C 123.86 207.34 124.62 208.00 125.55 208.00 Z" fill="#6e6e96" fill-opacity="0.31350002" fill-rule="nonzero" group-id="6,36,69" node-id="696" stroke="none" target-height="6.867996" target-width="7.9539948" target-x="123.86" target-y="201.128"></path><path d="M 91.25 202.59 C 91.25 201.78 90.49 201.13 89.56 201.13 L 71.28 201.13 C 70.35 201.13 69.58 201.78 69.58 202.59 L 69.58 206.53 C 69.58 207.33 70.35 207.99 71.28 207.99 L 89.56 207.99 C 90.49 207.99 91.25 207.34 91.25 206.53 L 91.25 202.59 L 91.25 202.59 Z" fill="#6e6e96" fill-opacity="0.31350002" fill-rule="nonzero" group-id="6,36,70" node-id="701" stroke="none" target-height="6.86499" target-width="21.664001" target-x="69.584" target-y="201.128"></path><path d="M 181.22 201.13 L 166.47 201.13 C 165.54 201.13 164.78 201.78 164.78 202.59 L 164.78 206.54 C 164.78 207.34 165.54 208.00 166.47 208.00 L 181.22 208.00 C 182.15 208.00 182.91 207.34 182.91 206.54 L 182.91 202.59 C 182.91 201.78 182.15 201.13 181.22 201.13 Z" fill="#6e6e96" fill-opacity="0.31350002" fill-rule="nonzero" group-id="6,36,71" node-id="706" stroke="none" target-height="6.867996" target-width="18.134003" target-x="164.78" target-y="201.128"></path><path d="M 76.26 210.38 L 71.28 210.38 C 70.35 210.38 69.58 211.03 69.58 211.84 L 69.58 215.79 C 69.58 216.59 70.35 217.24 71.28 217.24 L 76.26 217.24 C 77.19 217.24 77.95 216.59 77.95 215.79 L 77.95 211.84 C 77.95 211.03 77.19 210.38 76.26 210.38 Z" fill="#6e6e96" fill-opacity="0.31350002" fill-rule="nonzero" group-id="6,36,72" node-id="711" stroke="none" target-height="6.8619995" target-width="8.366997" target-x="69.584" target-y="210.38"></path><path d="M 87.17 210.38 L 82.19 210.38 C 81.26 210.38 80.50 211.03 80.50 211.84 L 80.50 215.79 C 80.50 216.59 81.26 217.24 82.19 217.24 L 87.17 217.24 C 88.10 217.24 88.86 216.59 88.86 215.79 L 88.86 211.84 C 88.86 211.03 88.10 210.38 87.17 210.38 Z" fill="#6e6e96" fill-opacity="0.31350002" fill-rule="nonzero" group-id="6,36,73" node-id="716" stroke="none" target-height="6.8619995" target-width="8.363998" target-x="80.496" target-y="210.38"></path><path d="M 97.75 210.38 L 92.77 210.38 C 91.84 210.38 91.08 211.03 91.08 211.84 L 91.08 215.79 C 91.08 216.59 91.84 217.24 92.77 217.24 L 97.75 217.24 C 98.68 217.24 99.45 216.59 99.45 215.79 L 99.45 211.84 C 99.45 211.03 98.68 210.38 97.75 210.38 Z" fill="#6e6e96" fill-opacity="0.31350002" fill-rule="nonzero" group-id="6,36,74" node-id="721" stroke="none" target-height="6.8619995" target-width="8.365997" target-x="91.081" target-y="210.38"></path><path d="M 143.61 210.38 L 103.78 210.38 C 102.85 210.38 102.09 211.03 102.09 211.84 L 102.09 215.79 C 102.09 216.59 102.85 217.24 103.78 217.24 L 143.61 217.24 C 144.54 217.24 145.30 216.59 145.30 215.79 L 145.30 211.84 C 145.30 211.03 144.54 210.38 143.61 210.38 Z" fill="#6e6e96" fill-opacity="0.31350002" fill-rule="nonzero" group-id="6,36,75" node-id="726" stroke="none" target-height="6.8619995" target-width="43.212997" target-x="102.09" target-y="210.38"></path><path d="M 155.60 210.38 L 149.37 210.38 C 148.44 210.38 147.68 211.03 147.68 211.84 L 147.68 215.79 C 147.68 216.59 148.44 217.24 149.37 217.24 L 155.60 217.24 C 156.54 217.24 157.30 216.59 157.30 215.79 L 157.30 211.84 C 157.30 211.03 156.54 210.38 155.60 210.38 Z" fill="#6e6e96" fill-opacity="0.31350002" fill-rule="nonzero" group-id="6,36,76" node-id="731" stroke="none" target-height="6.8619995" target-width="9.622009" target-x="147.676" target-y="210.38"></path><path d="M 181.22 210.38 L 174.99 210.38 C 174.05 210.38 173.29 211.03 173.29 211.84 L 173.29 215.79 C 173.29 216.59 174.05 217.24 174.99 217.24 L 181.22 217.24 C 182.15 217.24 182.91 216.59 182.91 215.79 L 182.91 211.84 C 182.91 211.03 182.15 210.38 181.22 210.38 Z" fill="#6e6e96" fill-opacity="0.31350002" fill-rule="nonzero" group-id="6,36,77" node-id="736" stroke="none" target-height="6.8619995" target-width="9.621994" target-x="173.292" target-y="210.38"></path><path d="M 88.40 181.65 L 92.97 181.65 C 93.90 181.65 94.67 180.99 94.67 180.19 L 94.67 176.24 C 94.67 175.44 93.90 174.78 92.97 174.78 L 88.40 174.78 C 87.47 174.78 86.71 175.44 86.71 176.24 L 86.71 180.19 C 86.71 180.99 87.47 181.65 88.40 181.65 Z" fill="#6e6e96" fill-opacity="0.31350002" fill-rule="nonzero" group-id="6,36,78" node-id="741" stroke="none" target-height="6.8629913" target-width="7.9540024" target-x="86.711" target-y="174.785"></path><path d="M 121.42 181.65 L 125.99 181.65 C 126.92 181.65 127.68 180.99 127.68 180.19 L 127.68 176.24 C 127.68 175.44 126.92 174.78 125.99 174.78 L 121.42 174.78 C 120.49 174.78 119.73 175.44 119.73 176.24 L 119.73 180.19 C 119.73 180.99 120.49 181.65 121.42 181.65 Z" fill="#6e6e96" fill-opacity="0.31350002" fill-rule="nonzero" group-id="6,36,79" node-id="746" stroke="none" target-height="6.8629913" target-width="7.9520035" target-x="119.727" target-y="174.785"></path><path d="M 176.45 181.65 L 181.01 181.65 C 181.94 181.65 182.71 180.99 182.71 180.19 L 182.71 176.24 C 182.71 175.44 181.94 174.78 181.01 174.78 L 176.45 174.78 C 175.51 174.78 174.75 175.44 174.75 176.24 L 174.75 180.19 C 174.75 180.99 175.51 181.65 176.45 181.65 Z" fill="#6e6e96" fill-opacity="0.31350002" fill-rule="nonzero" group-id="6,36,80" node-id="751" stroke="none" target-height="6.8629913" target-width="7.953003" target-x="174.752" target-y="174.785"></path><path d="M 132.43 181.65 L 136.99 181.65 C 137.92 181.65 138.69 180.99 138.69 180.19 L 138.69 176.24 C 138.69 175.44 137.92 174.78 136.99 174.78 L 132.43 174.78 C 131.50 174.78 130.73 175.44 130.73 176.24 L 130.73 180.19 C 130.73 180.99 131.49 181.65 132.43 181.65 Z" fill="#6e6e96" fill-opacity="0.31350002" fill-rule="nonzero" group-id="6,36,81" node-id="756" stroke="none" target-height="6.8629913" target-width="7.955002" target-x="130.73" target-y="174.785"></path><path d="M 110.42 181.65 L 114.98 181.65 C 115.91 181.65 116.67 180.99 116.67 180.19 L 116.67 176.24 C 116.67 175.44 115.91 174.78 114.98 174.78 L 110.42 174.78 C 109.48 174.78 108.72 175.44 108.72 176.24 L 108.72 180.19 C 108.72 180.99 109.48 181.65 110.42 181.65 Z" fill="#6e6e96" fill-opacity="0.31350002" fill-rule="nonzero" group-id="6,36,82" node-id="761" stroke="none" target-height="6.8629913" target-width="7.9540024" target-x="108.721" target-y="174.785"></path><path d="M 165.44 181.65 L 170.00 181.65 C 170.94 181.65 171.70 180.99 171.70 180.19 L 171.70 176.24 C 171.70 175.44 170.94 174.78 170.00 174.78 L 165.44 174.78 C 164.51 174.78 163.75 175.44 163.75 176.24 L 163.75 180.19 C 163.75 180.99 164.51 181.65 165.44 181.65 Z" fill="#6e6e96" fill-opacity="0.31350002" fill-rule="nonzero" group-id="6,36,83" node-id="766" stroke="none" target-height="6.8629913" target-width="7.953003" target-x="163.746" target-y="174.785"></path><path d="M 143.43 181.65 L 148.00 181.65 C 148.93 181.65 149.69 180.99 149.69 180.19 L 149.69 176.24 C 149.69 175.44 148.93 174.78 148.00 174.78 L 143.43 174.78 C 142.50 174.78 141.74 175.44 141.74 176.24 L 141.74 180.19 C 141.74 180.99 142.50 181.65 143.43 181.65 Z" fill="#6e6e96" fill-opacity="0.31350002" fill-rule="nonzero" group-id="6,36,84" node-id="771" stroke="none" target-height="6.8629913" target-width="7.955002" target-x="141.736" target-y="174.785"></path><path d="M 154.44 181.65 L 159.00 181.65 C 159.93 181.65 160.69 180.99 160.69 180.19 L 160.69 176.24 C 160.69 175.44 159.93 174.78 159.00 174.78 L 154.44 174.78 C 153.50 174.78 152.74 175.44 152.74 176.24 L 152.74 180.19 C 152.74 180.99 153.50 181.65 154.44 181.65 Z" fill="#6e6e96" fill-opacity="0.31350002" fill-rule="nonzero" group-id="6,36,85" node-id="776" stroke="none" target-height="6.8629913" target-width="7.950989" target-x="152.742" target-y="174.785"></path><path d="M 99.41 181.65 L 103.98 181.65 C 104.91 181.65 105.67 180.99 105.67 180.19 L 105.67 176.24 C 105.67 175.44 104.91 174.78 103.98 174.78 L 99.41 174.78 C 98.48 174.78 97.72 175.44 97.72 176.24 L 97.72 180.19 C 97.72 180.99 98.48 181.65 99.41 181.65 Z" fill="#6e6e96" fill-opacity="0.31350002" fill-rule="nonzero" group-id="6,36,86" node-id="781" stroke="none" target-height="6.8629913" target-width="7.955002" target-x="97.715" target-y="174.785"></path><path d="M 71.17 181.65 L 82.05 181.65 C 82.98 181.65 83.74 180.99 83.74 180.19 L 83.74 176.24 C 83.74 175.44 82.98 174.78 82.05 174.78 L 71.17 174.78 C 70.24 174.78 69.47 175.44 69.47 176.24 L 69.47 180.19 C 69.47 180.99 70.23 181.65 71.17 181.65 Z" fill="#6e6e96" fill-opacity="0.31350002" fill-rule="nonzero" group-id="6,36,87" node-id="786" stroke="none" target-height="6.8629913" target-width="14.267998" target-x="69.472" target-y="174.785"></path><path d="M 168.33 210.38 L 162.09 210.38 C 161.16 210.38 160.40 211.03 160.40 211.84 L 160.40 215.79 C 160.40 216.59 161.16 217.24 162.09 217.24 L 168.33 217.24 C 169.26 217.24 170.02 216.59 170.02 215.79 L 170.02 211.84 C 170.02 211.03 169.26 210.38 168.33 210.38 Z" fill="#6e6e96" fill-opacity="0.31350002" fill-rule="nonzero" group-id="6,36,88" node-id="791" stroke="none" target-height="6.8619995" target-width="9.623993" target-x="160.399" target-y="210.38"></path><path d="M 165.32 228.85 L 174.15 228.85 L 174.15 236.26 L 165.32 236.26 Z" fill="#ffe95f" fill-rule="nonzero" group-id="6,37" node-id="797" stroke="none" target-height="7.4059906" target-width="8.832001" target-x="165.318" target-y="228.85"></path><path d="M 174.15 237.76 L 165.32 237.76 C 164.49 237.76 163.82 237.08 163.82 236.26 L 163.82 228.85 C 163.82 228.02 164.49 227.35 165.32 227.35 L 174.15 227.35 C 174.98 227.35 175.65 228.02 175.65 228.85 L 175.65 236.26 C 175.65 237.08 174.98 237.76 174.15 237.76 Z M 166.82 234.76 L 172.65 234.76 L 172.65 230.35 L 166.82 230.35 L 166.82 234.76 Z" fill="#6e6e96" fill-rule="nonzero" group-id="6,37" node-id="799" stroke="none" target-height="10.405991" target-width="11.832001" target-x="163.818" target-y="227.35"></path><path d="M 179.82 228.85 L 188.66 228.85 L 188.66 236.26 L 179.82 236.26 Z" fill="#a6ffc9" fill-rule="nonzero" group-id="6,38" node-id="804" stroke="none" target-height="7.4059906" target-width="8.833008" target-x="179.825" target-y="228.85"></path><path d="M 188.66 237.76 L 179.82 237.76 C 179.00 237.76 178.32 237.08 178.32 236.26 L 178.32 228.85 C 178.32 228.02 179.00 227.35 179.82 227.35 L 188.66 227.35 C 189.49 227.35 190.16 228.02 190.16 228.85 L 190.16 236.26 C 190.16 237.08 189.49 237.76 188.66 237.76 Z M 181.32 234.76 L 187.16 234.76 L 187.16 230.35 L 181.32 230.35 L 181.32 234.76 Z" fill="#6e6e96" fill-rule="nonzero" group-id="6,38" node-id="806" stroke="none" target-height="10.405991" target-width="11.833008" target-x="178.325" target-y="227.35"></path><path d="M 193.62 157.18 L 58.35 157.18 C 56.11 157.18 54.28 155.35 54.28 153.11 L 54.28 157.18 C 54.28 159.42 56.11 161.25 58.35 161.25 L 193.62 161.25 C 195.86 161.25 197.70 159.42 197.70 157.18 L 197.70 153.11 C 197.70 155.35 195.86 157.18 193.62 157.18 Z" fill="#6e6e96" fill-opacity="0.25" fill-rule="nonzero" group-id="6,39" node-id="811" stroke="none" target-height="8.147995" target-width="143.417" target-x="54.28" target-y="153.106"></path><path d="M 108.18 150.43 L 170.25 83.47 L 161.15 83.47 L 99.08 150.43 Z" fill="#ffffff" fill-opacity="0.25" fill-rule="nonzero" group-id="6,40" node-id="816" stroke="none" target-height="66.95899" target-width="71.166" target-x="99.082" target-y="83.467"></path><path d="M 189.67 83.47 L 127.60 150.43 L 189.74 150.43 Z" fill="#ffffff" fill-opacity="0.25" fill-rule="nonzero" group-id="6,41" node-id="821" stroke="none" target-height="66.95899" target-width="62.135002" target-x="127.604" target-y="83.467"></path><path d="M 189.67 151.93 L 62.69 151.93 C 61.86 151.93 61.19 151.25 61.19 150.43 L 61.19 78.31 C 61.19 77.48 61.86 76.81 62.69 76.81 L 189.67 76.81 C 190.50 76.81 191.17 77.48 191.17 78.31 L 191.17 150.43 C 191.17 151.25 190.50 151.93 189.67 151.93 Z M 64.19 148.93 L 188.17 148.93 L 188.17 79.81 L 64.19 79.81 L 64.19 148.93 Z" fill="#6e6e96" fill-rule="nonzero" group-id="6" node-id="824" stroke="none" target-height="75.120995" target-width="129.98401" target-x="61.189" target-y="76.805"></path><path d="M 135.78 109.74 L 135.78 44.43 L 118.07 44.43 L 118.07 109.74 L 98.45 109.74 L 126.52 137.81 L 154.58 109.74 Z" fill="#c1edc5" fill-rule="nonzero" group-id="6" node-id="826" stroke="none" target-height="93.379" target-width="56.131996" target-x="98.452" target-y="44.426"></path><path d="M 139.15 141.01 L 112.14 141.01 C 111.31 141.01 110.64 140.34 110.64 139.51 C 110.64 138.68 111.31 138.01 112.14 138.01 L 139.15 138.01 C 139.98 138.01 140.65 138.68 140.65 139.51 C 140.65 140.34 139.98 141.01 139.15 141.01 Z" fill="#6e6e96" fill-opacity="0.38" fill-rule="nonzero" group-id="6,42" node-id="830" stroke="none" target-height="3" target-width="30.009995" target-x="110.642" target-y="138.01"></path><path d="M 126.09 130.16 L 106.10 110.16 L 98.03 110.16 L 126.09 138.23 L 154.16 110.16 L 146.09 110.16 Z" fill="#b5deb8" fill-rule="nonzero" group-id="6" node-id="833" stroke="none" target-height="28.067001" target-width="56.132996" target-x="98.026" target-y="110.162"></path><path d="M 119.31 109.74 L 100.25 110.16 L 103.76 113.68 L 115.85 113.68 C 115.84 113.68 119.31 113.99 119.31 109.74 Z" fill="#d0ffd3" fill-rule="nonzero" group-id="6" node-id="835" stroke="none" target-height="4.257004" target-width="19.060997" target-x="100.246" target-y="109.737"></path><path d="M 137.73 113.68 L 149.15 113.68 L 151.68 111.15 L 134.55 109.80 C 134.55 109.80 133.88 113.68 137.73 113.68 Z" fill="#d0ffd3" fill-rule="nonzero" group-id="6" node-id="837" stroke="none" target-height="3.8779984" target-width="17.802994" target-x="133.877" target-y="109.802"></path><path d="M 118.07 44.43 L 135.78 44.43 L 135.78 49.63 L 118.07 49.63 Z" fill="#d0ffd3" fill-rule="nonzero" group-id="6" node-id="839" stroke="none" target-height="5.201" target-width="17.707" target-x="118.071" target-y="44.426"></path><path d="M 126.52 139.31 C 126.12 139.31 125.74 139.15 125.46 138.87 L 97.39 110.80 C 96.96 110.37 96.83 109.72 97.07 109.16 C 97.30 108.60 97.84 108.24 98.45 108.24 L 116.57 108.24 L 116.57 44.43 C 116.57 43.60 117.24 42.93 118.07 42.93 L 135.78 42.93 C 136.61 42.93 137.28 43.60 137.28 44.43 L 137.28 108.24 L 154.59 108.24 C 155.19 108.24 155.74 108.60 155.97 109.16 C 156.20 109.72 156.07 110.37 155.65 110.80 L 127.58 138.87 C 127.30 139.15 126.92 139.31 126.52 139.31 Z M 102.07 111.24 L 126.52 135.68 L 150.96 111.24 L 135.78 111.24 C 134.95 111.24 134.28 110.57 134.28 109.74 L 134.28 45.93 L 119.57 45.93 L 119.57 109.74 C 119.57 110.57 118.90 111.24 118.07 111.24 L 102.07 111.24 Z" fill="#6e6e96" fill-rule="nonzero" group-id="6" node-id="841" stroke="none" target-height="96.379" target-width="59.370995" target-x="96.833" target-y="42.926"></path></g><g node-id="856"><path d="M 192.37 26.44 C 192.37 26.39 192.37 26.33 192.37 26.27 C 192.37 20.27 187.08 15.40 180.54 15.40 C 174.92 15.40 170.21 19.01 169.01 23.84 C 168.82 23.83 168.64 23.82 168.45 23.82 C 164.56 23.82 161.41 26.72 161.41 30.29 C 161.41 31.06 161.56 31.79 161.82 32.47 C 160.73 33.89 160.09 35.62 160.09 37.49 C 160.09 42.22 164.21 46.07 169.34 46.17 L 169.34 46.18 L 187.52 46.18 C 193.75 46.18 198.80 41.54 198.80 35.81 C 198.80 31.68 196.17 28.11 192.37 26.44 Z" fill="#ffffff" fill-rule="nonzero" group-id="7" node-id="846" stroke="none" target-height="30.777" target-width="38.710007" target-x="160.09" target-y="15.401"></path><path d="M 187.52 47.68 L 169.34 47.68 C 169.29 47.68 169.24 47.67 169.19 47.67 C 163.34 47.49 158.59 42.95 158.59 37.49 C 158.59 35.61 159.13 33.81 160.16 32.22 C 160.00 31.59 159.91 30.95 159.91 30.29 C 159.91 26.07 163.45 22.60 167.90 22.34 C 169.70 17.32 174.73 13.90 180.54 13.90 C 187.61 13.90 193.41 19.03 193.85 25.49 C 197.80 27.59 200.30 31.55 200.30 35.81 C 200.30 42.35 194.56 47.68 187.52 47.68 Z M 169.44 44.68 L 187.52 44.68 C 192.91 44.68 197.30 40.70 197.30 35.81 C 197.30 32.43 195.13 29.29 191.77 27.82 C 191.22 27.58 190.87 27.04 190.87 26.44 C 190.87 26.43 190.87 26.32 190.87 26.31 C 190.87 21.10 186.24 16.90 180.54 16.90 C 175.75 16.90 171.52 19.97 170.47 24.20 C 170.29 24.91 169.63 25.38 168.92 25.34 C 168.76 25.33 168.61 25.32 168.45 25.32 C 165.40 25.32 162.91 27.55 162.91 30.29 C 162.91 30.85 163.02 31.40 163.22 31.93 C 163.41 32.42 163.33 32.97 163.01 33.39 C 162.08 34.59 161.59 36.01 161.59 37.48 C 161.59 41.36 165.08 44.59 169.37 44.67 C 169.39 44.67 169.42 44.67 169.44 44.68 Z" fill="#ccccde" fill-rule="nonzero" group-id="7" node-id="848" stroke="none" target-height="33.775997" target-width="41.710007" target-x="158.59" target-y="13.901"></path></g></svg>