<?xml version="1.0" standalone="no"?><!DOCTYPE svg PUBLIC "-//W3C//DTD SVG 1.1//EN" "http://www.w3.org/Graphics/SVG/1.1/DTD/svg11.dtd"><svg t="1715852793300" class="icon" viewBox="0 0 1024 1024" version="1.1" xmlns="http://www.w3.org/2000/svg" p-id="6953" width="128" height="128" xmlns:xlink="http://www.w3.org/1999/xlink"><path d="M504.32 962.56c-21.76 0-38.4-16.64-38.4-38.4V256c0-21.76 16.64-38.4 38.4-38.4s38.4 16.64 38.4 38.4v666.88c0 21.76-16.64 39.68-38.4 39.68zM302.08 797.44c-21.76 0-38.4-16.64-38.4-38.4V421.12c0-21.76 16.64-38.4 38.4-38.4s38.4 16.64 38.4 38.4v337.92c0 20.48-16.64 38.4-38.4 38.4zM707.84 797.44c-21.76 0-38.4-16.64-38.4-38.4V421.12c0-21.76 16.64-38.4 38.4-38.4s38.4 16.64 38.4 38.4v337.92c0 20.48-17.92 38.4-38.4 38.4zM910.08 697.6c-21.76 0-38.4-16.64-38.4-38.4V520.96c0-21.76 16.64-38.4 38.4-38.4s38.4 16.64 38.4 38.4v138.24c0 21.76-17.92 38.4-38.4 38.4zM99.84 697.6c-21.76 0-38.4-16.64-38.4-38.4V520.96c0-21.76 16.64-38.4 38.4-38.4s38.4 16.64 38.4 38.4v138.24c0 21.76-16.64 38.4-38.4 38.4z" fill="#333333" p-id="6954"></path></svg>