<?xml version="1.0" standalone="no"?><!DOCTYPE svg PUBLIC "-//W3C//DTD SVG 1.1//EN" "http://www.w3.org/Graphics/SVG/1.1/DTD/svg11.dtd"><svg t="1711541787212" class="icon" viewBox="0 0 1024 1024" version="1.1" xmlns="http://www.w3.org/2000/svg" p-id="9999" xmlns:xlink="http://www.w3.org/1999/xlink" width="128" height="128"><path d="M330.24 842.24l-5.12 2.56 5.12-2.56zM921.6 409.6l30.72-20.48-28.16-20.48 30.72-130.56-48.64-148.48-273.92 112.64h-235.52L120.32 97.28l-2.56-5.12-46.08 130.56v2.56l25.6 148.48-25.6 10.24 33.28 25.6-33.28 12.8 38.4 28.16-20.48 10.24 46.08 51.2-64 189.44 64 199.68 192-56.32 5.12-2.56 110.08 87.04h140.8l110.08-84.48h5.12l186.88 56.32 61.44-202.24-58.88-186.88 43.52-51.2-20.48-7.68 40.96-25.6L921.6 409.6zM637.44 209.92L870.4 120.32l-281.6 217.6 48.64-128z m-12.8 2.56l-53.76 135.68-2.56 10.24v5.12l-12.8 401.92h-84.48l-17.92-404.48V358.4l-2.56-10.24-46.08-133.12 220.16-2.56zM744.96 537.6l-174.08 10.24 5.12-181.76 117.76 92.16 51.2 79.36z m-71.68 81.92l-69.12-38.4-25.6 74.24-10.24 2.56 2.56-99.84 171.52-10.24-69.12 71.68z m64-51.2l-56.32 117.76V627.2l2.56-2.56 53.76-56.32z m-74.24 56.32l-71.68 25.6 17.92-53.76 53.76 28.16z m-384-79.36l174.08 10.24 5.12 97.28-12.8-5.12-28.16-69.12-58.88 40.96-79.36-74.24z m69.12 84.48l-5.12 56.32-61.44-120.32 66.56 64z m-71.68-94.72l166.4-166.4 7.68 179.2-174.08-12.8z m153.6 112.64l-64-20.48 43.52-30.72 20.48 51.2z m-71.68-12.8l97.28 30.72 5.12 102.4-7.68 7.68-97.28-76.8 2.56-64z m97.28 153.6l2.56-2.56 7.68-7.68h89.6l15.36 10.24v64h-125.44l10.24-64zM391.68 212.48l40.96 122.88-281.6-215.04 240.64 92.16zM104.96 465.92l23.04-10.24-38.4-28.16 33.28-12.8-33.28-25.6 17.92-7.68-28.16-153.6 40.96-115.2 320 243.2-89.6 92.16-209.92 61.44-35.84-43.52z m38.4 51.2l192-56.32-74.24 74.24-2.56 2.56 2.56 5.12 79.36 156.16H81.92l61.44-181.76z m-2.56 371.2l-58.88-181.76h153.6l89.6 128-184.32 53.76z m186.88-64l-81.92-115.2h94.72l-12.8 115.2z m25.6-110.08l89.6 69.12-102.4 46.08 12.8-115.2z m17.92 148.48l66.56 30.72v20.48l-66.56-51.2z m66.56-2.56v23.04l-94.72-43.52 99.84-46.08-5.12 66.56z m10.24 0h125.44v25.6h-125.44v-25.6z m0 61.44v-25.6h125.44v25.6h-125.44z m130.56-143.36L563.2 768l2.56-102.4v2.56l102.4-35.84v74.24l-89.6 71.68z m7.68 138.24v-23.04l69.12-30.72-69.12 53.76z m-2.56-33.28v-92.16l94.72 48.64-94.72 43.52z m5.12-99.84l81.92-66.56 12.8 115.2-94.72-48.64z m107.52 43.52l-12.8-112.64 89.6-2.56-76.8 115.2z m184.32 64l-179.2-53.76 81.92-128 151.04-2.56-53.76 184.32z m53.76-194.56l-250.88 5.12 76.8-161.28-48.64-79.36 166.4 53.76 56.32 181.76z m-17.92-230.4l-35.84 40.96-179.2-56.32-120.32-94.72 320-243.2 43.52 130.56-30.72 133.12 20.48 15.36-33.28 17.92 30.72 15.36-40.96 25.6 25.6 15.36z" fill="#515151" p-id="10000"></path></svg>